<?xml version="1.0" encoding="utf-8"?>
<!-- Generator: Adobe Illustrator 22.0.1, SVG Export Plug-In . SVG Version: 6.00 Build 0)  -->
<svg version="1.1" id="Layer_1" xmlns="http://www.w3.org/2000/svg" xmlns:xlink="http://www.w3.org/1999/xlink" x="0px" y="0px"
	 viewBox="0 0 712.7 119.2" style="enable-background:new 0 0 712.7 119.2;" xml:space="preserve">
<style type="text/css">
	.st0{fill:#007BFF;}
	.st1{fill:#FFFFFF;}
</style>
<g>
	<path class="st0" d="M212.4,31.7L162,12.4l-8.9,18.9l7.4,2.4l26.6,9.3v0.8l-47.4,16.1l-3.4,7.1l-10,21.2l86.5-33.3
		c2.2-0.9,3.7-3,3.7-5.5V37.4C216.4,34.7,214.7,32.5,212.4,31.7z"/>
	<path class="st1" d="M147.1,6.6l-15.9-6.1c-0.7-0.3-1.5-0.5-2.4-0.5c-2.5,0-4.7,1.6-5.5,3.8c0,0,0,0,0,0L78.7,93l-0.1,0l-9.7,19.4
		c0,0,17.8,6.8,19,6.8c2.5,0,4.6-1.5,5.5-3.7c0,0,0,0,0,0L147.1,6.6z"/>
	<path class="st0" d="M76.4,59.4l14.2-28.5L4.1,64.2C1.7,65,0,67.2,0,69.9C0,70,0,81.7,0,81.8c0,2.6,1.7,4.8,4,5.6c0,0,0,0,0,0
		L52.5,106l9.6-18.5l-6.1-2l-26.6-9.3v-0.8L76.4,59.4z"/>
	<g>
		<path class="st1" d="M286.6,81.4V24.1H305c9.1,0,16.4,2.6,21.6,7.9c5.3,5.3,8,12.2,8,20.8s-2.6,15.5-7.9,20.8
			c-5.3,5.2-12.5,7.8-21.6,7.8H286.6z M293,75.5h11.6c15.5,0,23.6-8.9,23.6-22.7c0-13.9-8.1-22.8-23.7-22.8H293V75.5z"/>
		<path class="st1" d="M377.3,46.1v-6.2h6.1v32.2c0,3.6,0.8,5.2,3.1,5.2c0.7,0,1.4-0.1,2.1-0.2v4.6c-1,0.4-2.3,0.7-3.9,0.7
			c-1.8,0-3.3-0.4-4.4-1.2c-1.6-1.2-2.6-3.2-2.8-5.9c-3.1,4.9-8.1,7.3-15.1,7.3c-5.8,0-10.9-2.1-14.9-6.3s-6.1-9.5-6.1-15.7
			s2.1-11.4,6.1-15.6c4-4.2,9-6.3,14.9-6.3C370.1,38.7,375,41.9,377.3,46.1z M373.6,72.4c3-3.1,4.4-7,4.4-11.7
			c0-4.7-1.5-8.6-4.4-11.6c-2.9-3.1-6.6-4.7-11-4.7c-4.3,0-7.8,1.6-10.7,4.7c-2.8,3-4.2,6.9-4.2,11.6c0,4.7,1.4,8.6,4.2,11.7
			c2.9,3,6.4,4.6,10.7,4.6C367.1,77,370.8,75.4,373.6,72.4z"/>
		<path class="st1" d="M395.2,97.3V39.9h6.1v6.2c2.4-4.2,7.2-7.4,14.7-7.4c5.8,0,10.9,2.1,14.9,6.3c4,4.2,6.1,9.4,6.1,15.6
			s-2.1,11.5-6.1,15.7s-9,6.3-14.9,6.3c-7.5,0-12.3-3.2-14.7-7.4v22H395.2z M426.6,72.4c2.9-3.1,4.3-7,4.3-11.7
			c0-4.7-1.4-8.6-4.3-11.6c-2.8-3.1-6.3-4.7-10.6-4.7c-4.4,0-8.1,1.6-11.1,4.7c-2.9,3-4.4,6.9-4.4,11.6c0,4.7,1.5,8.6,4.4,11.7
			c3,3,6.7,4.6,11.1,4.6C420.3,77,423.8,75.4,426.6,72.4z"/>
		<path class="st1" d="M444.6,97.3V39.9h6.1v6.2c2.4-4.2,7.2-7.4,14.7-7.4c5.8,0,10.9,2.1,14.9,6.3c4,4.2,6.1,9.4,6.1,15.6
			s-2.1,11.5-6.1,15.7s-9,6.3-14.9,6.3c-7.5,0-12.3-3.2-14.7-7.4v22H444.6z M476,72.4c2.9-3.1,4.3-7,4.3-11.7
			c0-4.7-1.4-8.6-4.3-11.6c-2.8-3.1-6.3-4.7-10.6-4.7c-4.4,0-8.1,1.6-11.1,4.7c-2.9,3-4.4,6.9-4.4,11.6c0,4.7,1.5,8.6,4.4,11.7
			c3,3,6.7,4.6,11.1,4.6C469.6,77,473.2,75.4,476,72.4z"/>
		<path class="st1" d="M544.8,32.7l-4.4,3.9c-4.4-5.2-10.3-7.7-17.5-7.7c-6.7,0-12.3,2.3-16.8,6.8c-4.4,4.5-6.7,10.2-6.7,17
			c0,6.8,2.2,12.6,6.7,17.1c4.4,4.5,10,6.7,16.8,6.7c7.4,0,13.3-2.7,17.8-8.1l4.4,3.9c-5.8,6.7-13.2,10-22.1,10
			c-8.3,0-15.4-2.8-21.2-8.5c-5.8-5.7-8.6-12.8-8.6-21.3s2.9-15.5,8.6-21.2c5.8-5.7,12.9-8.6,21.2-8.6
			C531.7,23,539.1,26.2,544.8,32.7z"/>
		<path class="st1" d="M585.5,46.1v-6.2h6.1v32.2c0,3.6,0.8,5.2,3.1,5.2c0.7,0,1.4-0.1,2.1-0.2v4.6c-1,0.4-2.3,0.7-3.9,0.7
			c-1.8,0-3.3-0.4-4.4-1.2c-1.6-1.2-2.6-3.2-2.8-5.9c-3.1,4.9-8.1,7.3-15.1,7.3c-5.8,0-10.9-2.1-14.9-6.3c-4-4.2-6.1-9.5-6.1-15.7
			s2.1-11.4,6.1-15.6c4-4.2,9-6.3,14.9-6.3C578.2,38.7,583.1,41.9,585.5,46.1z M581.8,72.4c3-3.1,4.4-7,4.4-11.7
			c0-4.7-1.5-8.6-4.4-11.6c-2.9-3.1-6.6-4.7-11-4.7c-4.3,0-7.8,1.6-10.7,4.7c-2.8,3-4.2,6.9-4.2,11.6c0,4.7,1.4,8.6,4.2,11.7
			c2.9,3,6.4,4.6,10.7,4.6C575.2,77,578.9,75.4,581.8,72.4z"/>
		<path class="st1" d="M603.3,81.4V39.9h6.1v7c2-4.6,6.1-7.7,11.7-7.7c5.9,0,10,2.7,12.2,8.2c2.5-5.5,6.7-8.2,12.9-8.2
			c8.3,0,13.5,6.2,13.5,15.6V72c0,3.3,0.6,4.4,2.9,4.4c0.4,0,0.9-0.1,1.6-0.2v5c-0.7,0.2-1.6,0.4-2.6,0.4c-3.2,0-7.9-0.9-7.9-9.2
			V56.2c0-6.9-3.5-11.3-9-11.3c-5.7,0-9.9,4.8-9.9,11.7v24.8h-6.1V56.2c0-7-3.4-11.3-9.2-11.3c-5.7,0-10,4.8-10,11.7v24.8H603.3z"/>
		<path class="st1" d="M670.9,97.3V39.9h6.1v6.2c2.4-4.2,7.2-7.4,14.7-7.4c5.8,0,10.9,2.1,14.9,6.3c4,4.2,6.1,9.4,6.1,15.6
			s-2.1,11.5-6.1,15.7c-4,4.2-9,6.3-14.9,6.3c-7.5,0-12.3-3.2-14.7-7.4v22H670.9z M702.4,72.4c2.9-3.1,4.3-7,4.3-11.7
			c0-4.7-1.4-8.6-4.3-11.6c-2.8-3.1-6.3-4.7-10.6-4.7c-4.4,0-8.1,1.6-11.1,4.7c-2.9,3-4.4,6.9-4.4,11.6c0,4.7,1.5,8.6,4.4,11.7
			c3,3,6.7,4.6,11.1,4.6C696,77,699.6,75.4,702.4,72.4z"/>
	</g>
</g>
</svg>
