<?xml version="1.0" encoding="utf-8"?>
<!-- Generator: Adobe Illustrator 22.0.1, SVG Export Plug-In . SVG Version: 6.00 Build 0)  -->
<svg version="1.1" id="Layer_1" xmlns="http://www.w3.org/2000/svg" xmlns:xlink="http://www.w3.org/1999/xlink" x="0px" y="0px"
	 viewBox="0 0 808.8 257.9" style="enable-background:new 0 0 808.8 257.9;" xml:space="preserve">
<style type="text/css">
	.st0{fill:#1F2429;}
	.st1{font-family:'Helvetica-Light';}
	.st2{font-size:98.9657px;}
</style>
<g>
	<path class="st0" d="M136.8,249.6c3.5-0.7,6.9-1.6,10.2-2.5c0-0.1,0.1-0.1,0.1-0.2c0.1-0.2,0.1-0.4,0.2-0.7
		c0.5-1.4,2.2-2.2,3.4-2.3c0.2,0.6,0.3,1.3,0.3,2c2.7-0.9,5.4-1.8,8-2.9c0.1-0.3,0.2-0.5,0.4-0.7c0.1-0.1,0.2-0.3,0.3-0.4
		c0.1-0.2,0.3-0.3,0.4-0.5c0,0,0,0,0.1-0.1c0.1-0.1,0.1-0.1,0.2-0.2c0-0.1,0.1-0.1,0.1-0.2c0,0,0.1-0.1,0.1-0.1
		c1.3-1.3,3.2-2.2,5.2-2.2l3.1,0c4.1-2.1,8-4.4,11.8-6.9c0.7-0.7,1.3-1.6,1.7-2.6c0,0,0.9,0,2,0c1.6-1.2,3.1-2.4,4.6-3.6
		c0-1.3,0.4-2.6,1-3.7c0.1-0.1,0.2-0.3,0.3-0.4c0.1-0.2,0.3-0.3,0.4-0.5c0,0,0,0,0.1-0.1c0.1-0.1,0.1-0.1,0.2-0.2
		c0-0.1,0.1-0.1,0.1-0.2c0,0,0.1-0.1,0.1-0.1c1.3-1.3,3.2-2.2,5.2-2.2l0.5,0c1.9-1.9,3.7-3.8,5.4-5.8l-5.9,0c-0.5,0-1.1-0.1-1.6-0.2
		c1.3-0.8,2.3-2.1,2.8-3.5c0,0,6.1-0.1,6.1-0.1c0.7,0,1.3-0.1,1.8-0.3c1.6-2,3.1-4.1,4.5-6.2c-0.9,0.5-1.6,1.2-2,2
		c-0.1,0.2-0.1,0.4-0.2,0.7c-0.5,1.4-2.2,2.2-3.4,2.3c-0.2-0.6-0.3-1.3-0.3-2c0-1.4,0.4-2.6,1-3.7c0.1-0.1,0.2-0.3,0.3-0.4
		c0.1-0.2,0.3-0.3,0.4-0.5c0,0,0,0,0.1-0.1c0.1-0.1,0.1-0.1,0.2-0.2c0-0.1,0.1-0.1,0.1-0.2c0,0,0.1-0.1,0.1-0.1
		c1.3-1.3,3.2-2.2,5.2-2.2l1.3,0c11.9-19.6,17.8-43.2,17.8-70.4c0-26.7-5.7-49.7-17.3-69.1l-0.6,0c-2.2,0-4.1,1.1-4.8,2.6
		c-0.1,0.2-0.1,0.4-0.2,0.7c-0.5,1.4-2.2,2.2-3.4,2.3c-0.2-0.6-0.3-1.3-0.3-2c0-1.4,0.4-2.6,1-3.7c0.1-0.1,0.2-0.3,0.3-0.4
		c0.1-0.2,0.3-0.3,0.4-0.5c0,0,0,0,0.1-0.1c0.1-0.1,0.1-0.1,0.2-0.2c0-0.1,0.1-0.1,0.1-0.2c0,0,0.1-0.1,0.1-0.1
		c1.2-1.2,2.9-2,4.8-2.2c-1.4-2.1-2.8-4.1-4.3-6.1c-0.6,0.2-1.3,0.3-1.9,0.3h-8.6c-0.5,0-1.1-0.1-1.6-0.2c1.3-0.8,2.3-2.1,2.8-3.5
		c0,0,6.1-0.1,6.1-0.1c0.2,0,0.3,0,0.4,0c-2-2.4-4.1-4.8-6.3-7.1l-0.2,0c-2.2,0-4.1,1.1-4.8,2.6c-0.1,0.2-0.1,0.4-0.2,0.7
		c-0.5,1.4-2.2,2.2-3.4,2.3c-0.2-0.6-0.3-1.3-0.3-2c0-1.4,0.4-2.6,1-3.7c0.1-0.1,0.2-0.3,0.3-0.4c0.1-0.2,0.3-0.3,0.4-0.5
		c0,0,0,0,0.1-0.1c0.1-0.1,0.1-0.1,0.2-0.2c0-0.1,0.1-0.1,0.1-0.2c0,0,0.1-0.1,0.1-0.1c0.9-0.9,2-1.6,3.2-1.9
		c-2.2-2.1-4.4-4.2-6.7-6.1h-6.5c-0.5,0-1.1-0.1-1.6-0.2c1.3-0.8,2.3-2.1,2.8-3.5c0,0,0.2,0,0.6,0c-0.6-0.4-1.1-0.8-1.7-1.2
		c-0.2,0.6-0.5,1.1-0.8,1.7c0,0,0,0,0,0l0,0c-0.1,0.2-0.3,0.3-0.4,0.5c0,0,0,0-0.1,0.1c-0.1,0.1-0.1,0.1-0.2,0.2
		c0,0.1-0.1,0.1-0.1,0.2c0,0-0.1,0.1-0.1,0.1c-1.3,1.3-3.2,2.2-5.2,2.2h-8.6c-0.5,0-1.1-0.1-1.6-0.2c1.3-0.8,2.3-2.1,2.8-3.5
		c0,0,6.1-0.1,6.1-0.1c2.2,0,4.1-1.1,4.8-2.6c0.1-0.2,0.1-0.4,0.2-0.7c0,0,0-0.1,0-0.1c-0.2-0.1-0.4-0.3-0.6-0.4
		c-0.6,1.3-2.2,2.1-3.4,2.3c-0.2-0.6-0.3-1.3-0.3-2c0-0.8,0.1-1.6,0.4-2.3c-0.8-0.5-1.6-0.9-2.4-1.4l-4.8,0c-2.2,0-4.1,1.1-4.8,2.6
		c-0.1,0.2-0.1,0.4-0.2,0.7c-0.5,1.4-2.2,2.2-3.4,2.3c-0.2-0.6-0.3-1.3-0.3-2c0-1.4,0.4-2.6,1-3.7c0.1-0.1,0.2-0.3,0.3-0.4
		c0.1-0.2,0.3-0.3,0.4-0.5c0,0,0,0,0.1-0.1c0.1-0.1,0.1-0.1,0.2-0.2c0-0.1,0.1-0.1,0.1-0.2c0,0,0.1-0.1,0.1-0.1
		c1.1-1.1,2.6-1.9,4.3-2.1c-4.7-2.3-9.7-4.2-14.9-5.9c-0.4,0-0.8-0.1-1.1-0.1c0.1,0,0.1-0.1,0.2-0.1c-0.6-0.2-1.2-0.4-1.9-0.6
		c-1,0.6-2.2,0.9-3.5,0.9l-8.6,0c-0.5,0-1.1-0.1-1.6-0.2c1.3-0.8,2.3-2.1,2.8-3.5c0,0,0,0,0.1,0c-0.5-0.1-1-0.2-1.4-0.3
		c-0.1,0.2-0.3,0.5-0.4,0.7c0,0,0,0,0,0h0c-0.1,0.2-0.3,0.3-0.4,0.5c0,0,0,0-0.1,0.1c-0.1,0.1-0.1,0.1-0.2,0.2
		c0,0.1-0.1,0.1-0.1,0.2c0,0-0.1,0.1-0.1,0.1c-1.3,1.3-3.2,2.2-5.2,2.2l-8.6,0c-0.5,0-1.1-0.1-1.6-0.2c1.3-0.8,2.3-2.1,2.8-3.5
		c0,0,6.1-0.1,6.1-0.1c1.4,0,2.6-0.4,3.5-1.1c-3.4-0.6-6.8-1.1-10.3-1.5c-0.2,1.1-0.6,2.2-1.2,3.1c0,0,0,0,0,0h0
		c-0.1,0.2-0.3,0.3-0.4,0.5c0,0,0,0-0.1,0.1c-0.1,0.1-0.1,0.1-0.2,0.2c0,0.1-0.1,0.1-0.1,0.2c0,0-0.1,0.1-0.1,0.1
		c-1.3,1.3-3.2,2.2-5.2,2.2l-8.6,0c-0.5,0-1.1-0.1-1.6-0.2c1.3-0.8,2.3-2.1,2.8-3.5c0,0,6.1-0.1,6.1-0.1c2.2,0,4.1-1.1,4.8-2.6
		c0.1-0.1,0.1-0.3,0.1-0.4C110,0.3,103.1,0,96,0H0v126.9c0,0,0-0.1,0-0.1l4.1,0c2.2,0,4.1-1.1,4.8-2.6c0.1-0.2,0.1-0.4,0.2-0.7
		c0.5-1.4,2.2-2.2,3.4-2.3c0.2,0.6,0.3,1.3,0.3,2c0,1.5-0.5,2.9-1.3,4.1c-1.3,1.9-3.5,3.2-6.1,3.2l-5.3,0c0-1.2,0-2.4,0-3.6v126.6
		h96.4c7.9,0,15.5-0.4,22.7-1.1c0.8-0.8,1.5-1.7,1.9-2.7c0,0,6.1-0.1,6.1-0.1c2.2,0,4.1-1.1,4.8-2.6c0.1-0.2,0.1-0.4,0.2-0.7
		c0.5-1.4,2.2-2.2,3.4-2.3c0.2,0.6,0.3,1.3,0.3,2c0,1.5-0.5,2.9-1.3,4.1c0,0,0,0,0,0h0c0,0,0,0,0,0c0.6-0.1,1.2-0.2,1.8-0.4
		c0,0,0-0.1,0.1-0.1C136.2,249.7,136.4,249.7,136.8,249.6z M115.5,1c-0.7,0.8-1.9,1.3-2.8,1.4c-0.1-0.3-0.2-0.7-0.2-1.1
		C113.4,1.2,114.4,1.1,115.5,1z M157.6,242.4C157.6,242.4,157.6,242.4,157.6,242.4l-6.1,0.1c-2.2,0-4.1,1.1-4.8,2.6
		c-0.1,0.2-0.1,0.4-0.2,0.7c-0.5,1.4-2.2,2.2-3.4,2.3c-0.2-0.6-0.3-1.3-0.3-2c0-1.4,0.4-2.6,1-3.7c0.1-0.1,0.2-0.3,0.3-0.4
		c0.1-0.2,0.3-0.3,0.4-0.5c0,0,0,0,0.1-0.1c0.1-0.1,0.1-0.1,0.2-0.2c0-0.1,0.1-0.1,0.1-0.2c0,0,0.1-0.1,0.1-0.1
		c1.3-1.3,3.2-2.2,5.2-2.2l8.6,0c0.5,0,1.1,0.1,1.6,0.2C159.2,239.7,158.2,240.9,157.6,242.4z M149.6,25c-0.1,0.2-0.3,0.3-0.4,0.5
		c0,0,0,0-0.1,0.1c-0.1,0.1-0.1,0.1-0.2,0.2c0,0.1-0.1,0.1-0.1,0.2c0,0-0.1,0.1-0.1,0.1c-1.3,1.3-3.2,2.2-5.2,2.2H135
		c-0.5,0-1.1-0.1-1.6-0.2c1.3-0.8,2.3-2.1,2.8-3.5c0,0,6.1-0.1,6.1-0.1c2.2,0,4.1-1.1,4.8-2.6c0.1-0.2,0.1-0.4,0.2-0.7
		c0.5-1.4,2.2-2.2,3.4-2.3c0.2,0.6,0.3,1.3,0.3,2C150.9,22.3,150.4,23.7,149.6,25C149.6,24.9,149.6,24.9,149.6,25L149.6,25z
		 M180.3,45.4c-0.1,0.2-0.3,0.3-0.4,0.5c0,0,0,0-0.1,0.1c-0.1,0.1-0.1,0.1-0.2,0.2c0,0.1-0.1,0.1-0.1,0.2c0,0-0.1,0.1-0.1,0.1
		c-1.3,1.3-3.2,2.2-5.2,2.2h-8.6c-0.5,0-1.1-0.1-1.6-0.2c1.3-0.8,2.3-2.1,2.8-3.5c0,0,6.1-0.1,6.1-0.1c2.2,0,4.1-1.1,4.8-2.6
		c0.1-0.2,0.1-0.4,0.2-0.7c0.5-1.4,2.2-2.2,3.4-2.3c0.2,0.6,0.3,1.3,0.3,2C181.6,42.8,181.2,44.2,180.3,45.4
		C180.3,45.4,180.3,45.4,180.3,45.4L180.3,45.4z M195.7,65.9c-0.1,0.2-0.3,0.3-0.4,0.5c0,0,0,0-0.1,0.1c-0.1,0.1-0.1,0.1-0.2,0.2
		c0,0.1-0.1,0.1-0.1,0.2c0,0-0.1,0.1-0.1,0.1c-1.3,1.3-3.2,2.2-5.2,2.2h-3.4c-1.3-1.2-2.7-2.3-4.1-3.3c0.1-0.1,0.1-0.2,0.1-0.3
		c0,0,6.1-0.1,6.1-0.1c2.2,0,4.1-1.1,4.8-2.6c0.1-0.2,0.1-0.4,0.2-0.7c0.5-1.4,2.2-2.2,3.4-2.3c0.2,0.6,0.3,1.3,0.3,2
		C197,63.3,196.5,64.7,195.7,65.9C195.7,65.9,195.7,65.9,195.7,65.9L195.7,65.9z M207.5,186.7l3,2.5c0,0,0,0,0,0
		c-0.1,0.1-0.1,0.1-0.2,0.2c0,0.1-0.1,0.1-0.1,0.2c0,0-0.1,0.1-0.1,0.1c-1.3,1.3-3.2,2.2-5.2,2.2h-8.6c-0.5,0-1.1-0.1-1.6-0.2
		c1.3-0.8,2.3-2.1,2.8-3.5c0,0,6.1-0.1,6.1-0.1C205.2,188.2,206.6,187.6,207.5,186.7z M204.1,184.7c0-0.3,0-0.5,0.1-0.8l2.3,2
		c-0.7,0.4-1.4,0.7-2.1,0.8C204.2,186,204.1,185.3,204.1,184.7z M180.3,209.2c-0.1,0.2-0.3,0.3-0.4,0.5c0,0,0,0-0.1,0.1
		c-0.1,0.1-0.1,0.1-0.2,0.2c0,0.1-0.1,0.1-0.1,0.2c0,0-0.1,0.1-0.1,0.1c-1.3,1.3-3.2,2.2-5.2,2.2l-8.6,0c-0.5,0-1.1-0.1-1.6-0.2
		c1.3-0.8,2.3-2.1,2.8-3.5c0,0,6.1-0.1,6.1-0.1c2.2,0,4.1-1.1,4.8-2.6c0.1-0.2,0.1-0.4,0.2-0.7c0.5-1.4,2.2-2.2,3.4-2.3
		c0.2,0.6,0.3,1.3,0.3,2C181.6,206.5,181.2,208,180.3,209.2C180.3,209.1,180.3,209.2,180.3,209.2L180.3,209.2z M149.6,45.4
		c-0.1,0.2-0.3,0.3-0.4,0.5c0,0,0,0-0.1,0.1c-0.1,0.1-0.1,0.1-0.2,0.2c0,0.1-0.1,0.1-0.1,0.2c0,0-0.1,0.1-0.1,0.1
		c-1.3,1.3-3.2,2.2-5.2,2.2H135c-0.5,0-1.1-0.1-1.6-0.2c1.3-0.8,2.3-2.1,2.8-3.5c0,0,6.1-0.1,6.1-0.1c2.2,0,4.1-1.1,4.8-2.6
		c0.1-0.2,0.1-0.4,0.2-0.7c0.5-1.4,2.2-2.2,3.4-2.3c0.2,0.6,0.3,1.3,0.3,2C150.9,42.8,150.4,44.2,149.6,45.4
		C149.6,45.4,149.6,45.4,149.6,45.4L149.6,45.4z M157.6,208.7c2.2,0,4.1-1.1,4.8-2.6c0.1-0.2,0.1-0.4,0.2-0.7
		c0.5-1.4,2.2-2.2,3.4-2.3c0.2,0.6,0.3,1.3,0.3,2c0,1.5-0.5,2.9-1.3,4.1c0,0,0,0,0,0l0,0c-0.1,0.2-0.3,0.3-0.4,0.5c0,0,0,0-0.1,0.1
		c-0.1,0.1-0.1,0.1-0.2,0.2c0,0.1-0.1,0.1-0.1,0.2c0,0-0.1,0.1-0.1,0.1c-1.3,1.3-3.2,2.2-5.2,2.2l-8.6,0c-0.5,0-1.1-0.1-1.6-0.2
		c1.3-0.8,2.3-2.1,2.8-3.5C151.6,208.7,157.6,208.7,157.6,208.7z M153.8,201.5c1.5-0.4,3-0.8,4.5-1.3c-0.2,0.4-0.5,0.8-0.6,1.2
		c0,0,0,0-0.1,0L153.8,201.5z M158.3,205.1c0-1.4,0.4-2.6,1-3.7c0.1-0.1,0.2-0.3,0.3-0.4c0.1-0.2,0.3-0.3,0.4-0.5c0,0,0,0,0.1-0.1
		c0.1-0.1,0.1-0.1,0.2-0.2c0-0.1,0.1-0.1,0.1-0.2c0,0,0.1-0.1,0.1-0.1c0.3-0.3,0.6-0.6,1-0.8c1.1-0.4,2.3-0.8,3.4-1.3
		c0.3,0,0.6-0.1,0.9-0.1l8.6,0c0.5,0,1.1,0.1,1.6,0.2c-1.3,0.8-2.3,2.1-2.8,3.5c0,0,0,0-0.1,0l-6,0.1c-2.2,0-4.1,1.1-4.8,2.6
		c-0.1,0.2-0.1,0.4-0.2,0.7c-0.5,1.4-2.2,2.2-3.4,2.3C158.4,206.5,158.3,205.8,158.3,205.1z M149.6,209.1
		C149.6,209.1,149.6,209.2,149.6,209.1L149.6,209.1c-0.1,0.2-0.3,0.4-0.4,0.6c0,0,0,0-0.1,0.1c-0.1,0.1-0.1,0.1-0.2,0.2
		c0,0.1-0.1,0.1-0.1,0.2c0,0-0.1,0.1-0.1,0.1c-1.3,1.3-3.2,2.2-5.2,2.2l-8.6,0c-0.5,0-1.1-0.1-1.6-0.2c1.3-0.8,2.3-2.1,2.8-3.5
		c0,0,6.1-0.1,6.1-0.1c2.2,0,4.1-1.1,4.8-2.6c0.1-0.2,0.1-0.4,0.2-0.7c0.5-1.4,2.2-2.2,3.4-2.3c0.2,0.6,0.3,1.3,0.3,2
		C150.9,206.5,150.4,208,149.6,209.1z M58.2,156.8l1.4,0c0.5,1.3,1,2.5,1.6,3.7l-1.7,0c-2.2,0-4.1,1.1-4.8,2.6
		c-0.1,0.2-0.1,0.4-0.2,0.7c-0.5,1.4-2.2,2.2-3.4,2.3c-0.2-0.6-0.3-1.3-0.3-2c0-1.4,0.4-2.6,1-3.7c0.1-0.1,0.2-0.3,0.3-0.4
		c0.1-0.2,0.3-0.3,0.4-0.5c0,0,0,0,0.1-0.1c0.1-0.1,0.1-0.1,0.2-0.2c0-0.1,0.1-0.1,0.1-0.2c0,0,0.1-0.1,0.1-0.1
		C54.3,157.7,56.2,156.8,58.2,156.8z M56.6,150.9c0.3-0.2,0.5-0.4,0.8-0.6c0.1,0.2,0.1,0.5,0.2,0.7C57.2,151,56.9,150.9,56.6,150.9z
		 M119,45.4c-0.1,0.2-0.3,0.3-0.4,0.5c0,0,0,0-0.1,0.1c-0.1,0.1-0.1,0.1-0.2,0.2c0,0.1-0.1,0.1-0.1,0.2c0,0-0.1,0.1-0.1,0.1
		c-1.3,1.3-3.2,2.2-5.2,2.2h-8.6c-0.5,0-1.1-0.1-1.6-0.2c1.3-0.8,2.3-2.1,2.8-3.5c0,0,6.1-0.1,6.1-0.1c2.2,0,4.1-1.1,4.8-2.6
		c0.1-0.2,0.1-0.4,0.2-0.7c0.5-1.4,2.2-2.2,3.4-2.3c0.2,0.6,0.3,1.3,0.3,2C120.3,42.8,119.8,44.2,119,45.4
		C119,45.4,119,45.4,119,45.4L119,45.4z M117.1,202.9c-0.4,0.4-0.7,0.8-0.9,1.2c-0.1,0.2-0.1,0.4-0.2,0.7c-0.5,1.4-2.2,2.2-3.4,2.3
		c-0.2-0.6-0.3-1.3-0.3-2c0-1.1,0.3-2.1,0.7-3.1C114.4,202.4,115.8,202.6,117.1,202.9z M102.9,54.6c-0.8,0.3-1.7,0.7-2.5,1
		C101.2,55.1,102,54.8,102.9,54.6z M103.7,45.4C103.7,45.4,103.6,45.4,103.7,45.4L103.7,45.4c-0.1,0.2-0.3,0.4-0.4,0.6
		c0,0,0,0-0.1,0.1c-0.1,0.1-0.1,0.1-0.2,0.2c0,0.1-0.1,0.1-0.1,0.2c0,0-0.1,0.1-0.1,0.1c-1.3,1.3-3.2,2.2-5.2,2.2H89
		c-0.5,0-1.1-0.1-1.6-0.2c1.3-0.8,2.3-2.1,2.8-3.5c0,0,6.1-0.1,6.1-0.1c2.2,0,4.1-1.1,4.8-2.6c0.1-0.2,0.1-0.4,0.2-0.7
		c0.5-1.4,2.2-2.2,3.4-2.3c0.2,0.6,0.3,1.3,0.3,2C104.9,42.8,104.5,44.2,103.7,45.4z M89,54.5l8.6,0c0.5,0,1.1,0.1,1.6,0.2
		c-1,0.7-1.9,1.6-2.5,2.7c-0.5,0.3-1.1,0.5-1.6,0.8l-4.9,0c-2.2,0-4.1,1.1-4.8,2.6c-0.1,0.2-0.1,0.4-0.2,0.7
		c-0.5,1.4-2.2,2.2-3.4,2.3c-0.2-0.6-0.3-1.3-0.3-2c0-1.4,0.4-2.6,1-3.7c0.1-0.1,0.2-0.3,0.3-0.4c0.1-0.2,0.3-0.3,0.4-0.5
		c0,0,0,0,0.1-0.1c0.1-0.1,0.1-0.1,0.2-0.2c0-0.1,0.1-0.1,0.1-0.2c0,0,0.1-0.1,0.1-0.1C85.1,55.3,86.9,54.5,89,54.5z M79.5,69.1
		h-5.8c-0.5,0-1.1-0.1-1.6-0.2c1.3-0.8,2.3-2.1,2.8-3.5c0,0,6.1-0.1,6.1-0.1c2.2,0,4.1-1.1,4.8-2.6c0.1-0.2,0.1-0.4,0.2-0.7
		c0.5-1.4,2.2-2.2,3.4-2.3c0.2,0.5,0.2,1.1,0.3,1.6C86.1,63.6,82.7,66.2,79.5,69.1z M88.7,191.9c-0.4,0-0.9-0.1-1.3-0.2
		c0.2-0.1,0.3-0.2,0.5-0.4C88.1,191.6,88.4,191.7,88.7,191.9z M81,58.2C81,58.2,80.9,58.1,81,58.2l-6.1,0.1c-2.2,0-4.1,1.1-4.8,2.6
		C70,61,70,61.3,70,61.5c-0.5,1.4-2.2,2.2-3.4,2.3c-0.2-0.6-0.3-1.3-0.3-2c0-1.4,0.4-2.6,1-3.7c0.1-0.1,0.2-0.3,0.3-0.4
		c0.1-0.2,0.3-0.3,0.4-0.5c0,0,0,0,0.1-0.1c0.1-0.1,0.1-0.1,0.2-0.2c0-0.1,0.1-0.1,0.1-0.2c0,0,0.1-0.1,0.1-0.1
		c1.3-1.3,3.2-2.2,5.2-2.2l8.6,0c0.5,0,1.1,0.1,1.6,0.2C82.5,55.5,81.5,56.7,81,58.2z M70.3,62.8c0.1-0.2,0.1-0.4,0.2-0.7
		c0.5-1.4,2.2-2.2,3.4-2.3c0.2,0.6,0.3,1.3,0.3,2c0,1.5-0.5,2.9-1.3,4.1c0,0,0,0,0,0h0c-0.1,0.2-0.3,0.3-0.4,0.5c0,0,0,0-0.1,0.1
		c-0.1,0.1-0.1,0.1-0.2,0.2c0,0.1-0.1,0.1-0.1,0.2c0,0-0.1,0.1-0.1,0.1c-1.3,1.3-3.2,2.2-5.2,2.2l-8.6,0c-0.5,0-1.1-0.1-1.6-0.2
		c1.3-0.8,2.3-2.1,2.8-3.5c0,0,6.1-0.1,6.1-0.1C67.8,65.4,69.7,64.3,70.3,62.8z M58.2,75h8.6c0.5,0,1.1,0.1,1.6,0.2
		c-1.3,0.8-2.3,2.1-2.8,3.5c0,0,0,0-0.1,0l-6,0.1c-2.2,0-4.1,1.1-4.8,2.6c-0.1,0.2-0.1,0.4-0.2,0.7c-0.5,1.4-2.2,2.2-3.4,2.3
		c-0.2-0.6-0.3-1.3-0.3-2c0-1.4,0.4-2.6,1-3.7c0.1-0.1,0.2-0.3,0.3-0.4c0.1-0.2,0.3-0.3,0.4-0.5c0,0,0,0,0.1-0.1
		c0.1-0.1,0.1-0.1,0.2-0.2c0-0.1,0.1-0.1,0.1-0.2c0,0,0.1-0.1,0.1-0.1C54.3,75.8,56.2,75,58.2,75z M54.9,83.3
		c0.1-0.2,0.1-0.4,0.2-0.7c0.5-1.4,2.2-2.2,3.4-2.3c0.2,0.6,0.3,1.3,0.3,2c0,1.5-0.5,2.9-1.3,4.1c0,0,0,0,0,0l0,0
		c-0.1,0.2-0.3,0.3-0.4,0.5c0,0,0,0-0.1,0.1c-0.1,0.1-0.1,0.1-0.2,0.2c0,0.1-0.1,0.1-0.1,0.2c0,0-0.1,0.1-0.1,0.1
		c-1.3,1.3-3.2,2.2-5.2,2.2h-8.6c-0.5,0-1.1-0.1-1.6-0.2c1.3-0.8,2.3-2.1,2.8-3.5c0,0,6.1-0.1,6.1-0.1
		C52.4,85.9,54.3,84.8,54.9,83.3z M59.4,85.9c0,0,4.7,0,5.8-0.1c-0.8,1.2-1.5,2.5-2.2,3.7h-4.9c-0.5,0-1.1-0.1-1.6-0.2
		C57.9,88.6,58.9,87.4,59.4,85.9z M58.2,95.4l2.1,0c-0.5,1.2-1,2.5-1.5,3.8c-2,0.2-3.6,1.2-4.1,2.6c-0.1,0.2-0.1,0.4-0.2,0.7
		c-0.5,1.4-2.2,2.2-3.4,2.3c-0.2-0.6-0.3-1.3-0.3-2c0-1.4,0.4-2.6,1-3.7c0.1-0.1,0.2-0.3,0.3-0.4c0.1-0.2,0.3-0.3,0.4-0.5
		c0,0,0,0,0.1-0.1c0.1-0.1,0.1-0.1,0.2-0.2c0-0.1,0.1-0.1,0.1-0.2c0,0,0.1-0.1,0.1-0.1C54.3,96.3,56.2,95.4,58.2,95.4z M65,167.8
		c0.8,1.3,1.6,2.5,2.4,3.7c-0.2,0-0.4,0-0.6,0l-8.6,0c-0.5,0-1.1-0.1-1.6-0.2c1.3-0.8,2.3-2.1,2.8-3.5
		C59.4,167.8,63.5,167.8,65,167.8z M66.5,84c-0.1-0.5-0.2-1.1-0.2-1.7c0-1.4,0.4-2.6,1-3.7c0.1-0.1,0.2-0.3,0.3-0.4
		c0.1-0.2,0.3-0.3,0.4-0.5c0,0,0,0,0.1-0.1c0.1-0.1,0.1-0.1,0.2-0.2c0-0.1,0.1-0.1,0.1-0.2c0,0,0.1-0.1,0.1-0.1
		c1.3-1.3,3.2-2.2,5.2-2.2C70.9,77.8,68.6,80.9,66.5,84z M72,177.5c1,1.2,2.1,2.4,3.2,3.5l-0.3,0c-2.2,0-4.1,1.1-4.8,2.6
		c-0.1,0.2-0.1,0.4-0.2,0.7c-0.5,1.4-2.2,2.2-3.4,2.3c-0.2-0.6-0.3-1.3-0.3-2c0-1.4,0.4-2.6,1-3.7c0.1-0.1,0.2-0.3,0.3-0.4
		c0.1-0.2,0.3-0.3,0.4-0.5c0,0,0,0,0.1-0.1c0.1-0.1,0.1-0.1,0.2-0.2c0-0.1,0.1-0.1,0.1-0.2c0,0,0.1-0.1,0.1-0.1
		C69.4,178.5,70.6,177.8,72,177.5z M81,188.2c0.7,0,1.4-0.1,2-0.3c1.2,0.9,2.4,1.8,3.6,2.6c-1.2,0.9-2.7,1.4-4.3,1.4h-8.6
		c-0.5,0-1.1-0.1-1.6-0.2c1.3-0.8,2.3-2.1,2.8-3.5C74.9,188.2,81,188.2,81,188.2z M89,197.7l8.6,0c0.5,0,1.1,0.1,1.6,0.2
		c-1.3,0.8-2.3,2.1-2.8,3.5c0,0,0,0-0.1,0l-6,0.1c-2.2,0-4.1,1.1-4.8,2.6c-0.1,0.2-0.1,0.4-0.2,0.7c-0.5,1.4-2.2,2.2-3.4,2.3
		c-0.2-0.6-0.3-1.3-0.3-2c0-1.4,0.4-2.6,1-3.7c0.1-0.1,0.2-0.3,0.3-0.4c0.1-0.2,0.3-0.3,0.4-0.5c0,0,0,0,0.1-0.1
		c0.1-0.1,0.1-0.1,0.2-0.2c0-0.1,0.1-0.1,0.1-0.2c0,0,0.1-0.1,0.1-0.1C85.1,198.6,86.9,197.8,89,197.7z M98,201.4
		c0.1-0.1,0.2-0.3,0.3-0.4c0.1-0.2,0.3-0.3,0.4-0.5c0,0,0,0,0.1-0.1c0.1-0.1,0.1-0.1,0.2-0.2c0-0.1,0.1-0.1,0.1-0.2
		c0,0,0.1-0.1,0.1-0.1c0.6-0.6,1.3-1.1,2.2-1.5c3,1.2,6,2.2,9.2,3l-4.9,0c-2.2,0-4.1,1.1-4.8,2.6c-0.1,0.2-0.1,0.4-0.2,0.7
		c-0.5,1.4-2.2,2.2-3.4,2.3c-0.2-0.6-0.3-1.3-0.3-2C97,203.8,97.4,202.5,98,201.4z M111.7,208.7c2.2,0,4.1-1.1,4.8-2.6
		c0.1-0.2,0.1-0.4,0.2-0.7c0.4-1.1,1.6-1.9,2.7-2.2c0.3,0,0.5,0.1,0.8,0.1c0.1,0.6,0.2,1.1,0.2,1.7c0,1.5-0.5,2.9-1.3,4.1
		c0,0,0,0,0,0l0,0c-0.1,0.2-0.3,0.3-0.4,0.5c0,0,0,0-0.1,0.1c-0.1,0.1-0.1,0.1-0.2,0.2c0,0.1-0.1,0.1-0.1,0.2c0,0-0.1,0.1-0.1,0.1
		c-1.3,1.3-3.2,2.2-5.2,2.2l-8.6,0c-0.5,0-1.1-0.1-1.6-0.2c1.3-0.8,2.3-2.1,2.8-3.5C105.6,208.7,111.7,208.7,111.7,208.7z
		 M121,208.7c0,0,6.1-0.1,6.1-0.1c2.2,0,4.1-1.1,4.8-2.6c0.1-0.2,0.1-0.4,0.2-0.7c0.2-0.5,0.6-1,1-1.3c0.9,0,1.7,0,2.6-0.1
		c0.1,0.3,0.1,0.7,0.1,1c0,1.5-0.5,2.9-1.3,4.1c0,0,0,0,0,0l0,0c-0.1,0.2-0.3,0.3-0.4,0.5c0,0,0,0-0.1,0.1c-0.1,0.1-0.1,0.1-0.2,0.2
		c0,0.1-0.1,0.1-0.1,0.2c0,0-0.1,0.1-0.1,0.1c-1.3,1.3-3.2,2.2-5.2,2.2l-8.6,0c-0.5,0-1.1-0.1-1.6-0.2
		C119.4,211.4,120.4,210.2,121,208.7z M127.6,205.1c0-0.4,0-0.8,0.1-1.2c1.3,0.1,2.5,0.1,3.8,0.1c0,0,0,0,0,0
		c-0.1,0.2-0.1,0.4-0.2,0.7c-0.5,1.4-2.2,2.2-3.4,2.3C127.7,206.5,127.6,205.8,127.6,205.1z M146.8,204.1c-0.1,0.2-0.1,0.4-0.2,0.7
		c-0.5,1.4-2.2,2.2-3.4,2.3c-0.2-0.6-0.3-1.3-0.3-2c0-0.6,0.1-1.2,0.2-1.7c1.6-0.2,3.2-0.4,4.7-0.7
		C147.4,203.1,147,203.6,146.8,204.1z M134.4,45.4C134.4,45.4,134.4,45.4,134.4,45.4L134.4,45.4c-0.1,0.2-0.3,0.4-0.4,0.6
		c0,0,0,0-0.1,0.1c-0.1,0.1-0.1,0.1-0.2,0.2c0,0.1-0.1,0.1-0.1,0.2c0,0-0.1,0.1-0.1,0.1c-1.3,1.3-3.2,2.2-5.2,2.2h-8.6
		c-0.5,0-1.1-0.1-1.6-0.2c1.3-0.8,2.3-2.1,2.8-3.5c0,0,6.1-0.1,6.1-0.1c2.2,0,4.1-1.1,4.8-2.6c0.1-0.2,0.1-0.4,0.2-0.7
		c0.5-1.4,2.2-2.2,3.4-2.3c0.2,0.6,0.3,1.3,0.3,2C135.7,42.8,135.2,44.2,134.4,45.4z M127,37.7l-6,0.1c-2.2,0-4.1,1.1-4.8,2.6
		c-0.1,0.2-0.1,0.4-0.2,0.7c-0.5,1.4-2.2,2.2-3.4,2.3c-0.2-0.6-0.3-1.3-0.3-2c0-1.4,0.4-2.6,1-3.7c0.1-0.1,0.2-0.3,0.3-0.4
		c0.1-0.2,0.3-0.3,0.4-0.5c0,0,0,0,0.1-0.1c0.1-0.1,0.1-0.1,0.2-0.2c0-0.1,0.1-0.1,0.1-0.2c0,0,0.1-0.1,0.1-0.1
		c1.3-1.3,3.2-2.2,5.2-2.2l8.6,0c0.5,0,1.1,0.1,1.6,0.2C128.6,35,127.6,36.2,127,37.7C127.1,37.7,127,37.7,127,37.7z M111.7,37.7
		C111.7,37.7,111.7,37.7,111.7,37.7l-6.1,0.1c-2.2,0-4.1,1.1-4.8,2.6c-0.1,0.2-0.1,0.4-0.2,0.7c-0.5,1.4-2.2,2.2-3.4,2.3
		c-0.2-0.6-0.3-1.3-0.3-2c0-1.4,0.4-2.6,1-3.7c0.1-0.1,0.2-0.3,0.3-0.4c0.1-0.2,0.3-0.3,0.4-0.5c0,0,0,0,0.1-0.1
		c0.1-0.1,0.1-0.1,0.2-0.2c0-0.1,0.1-0.1,0.1-0.2c0,0,0.1-0.1,0.1-0.1c1.3-1.3,3.2-2.2,5.2-2.2l8.6,0c0.6,0,1.1,0.1,1.6,0.2
		C113.3,35,112.3,36.2,111.7,37.7z M96.3,37.7C96.3,37.7,96.3,37.7,96.3,37.7l-6.1,0.1c-2.2,0-4.1,1.1-4.8,2.6
		c-0.1,0.2-0.1,0.4-0.2,0.7c-0.5,1.4-2.2,2.2-3.4,2.3c-0.2-0.6-0.3-1.3-0.3-2c0-1.4,0.4-2.6,1-3.7c0.1-0.1,0.2-0.3,0.3-0.4
		c0.1-0.2,0.3-0.3,0.4-0.5c0,0,0,0,0.1-0.1c0.1-0.1,0.1-0.1,0.2-0.2c0-0.1,0.1-0.1,0.1-0.2c0,0,0.1-0.1,0.1-0.1
		c1.3-1.3,3.2-2.2,5.2-2.2l8.6,0c0.5,0,1.1,0.1,1.6,0.2C97.9,35,96.9,36.2,96.3,37.7z M85.7,42.3c0.1-0.2,0.1-0.4,0.2-0.7
		c0.5-1.4,2.2-2.2,3.4-2.3c0.2,0.6,0.3,1.3,0.3,2c0,1.5-0.5,2.9-1.3,4.1c0,0,0,0,0,0h0c-0.1,0.2-0.3,0.3-0.4,0.5c0,0,0,0-0.1,0.1
		c-0.1,0.1-0.1,0.1-0.2,0.2c0,0.1-0.1,0.1-0.1,0.2c0,0-0.1,0.1-0.1,0.1c-1.3,1.3-3.2,2.2-5.2,2.2h-8.6c-0.5,0-1.1-0.1-1.6-0.2
		c1.3-0.8,2.3-2.1,2.8-3.5c0,0,6.1-0.1,6.1-0.1C83.2,44.9,85.1,43.8,85.7,42.3z M72.9,45.4C72.9,45.4,72.8,45.4,72.9,45.4L72.9,45.4
		c-0.1,0.2-0.3,0.4-0.4,0.6c0,0,0,0-0.1,0.1c-0.1,0.1-0.1,0.1-0.2,0.2c0,0.1-0.1,0.1-0.1,0.2c0,0-0.1,0.1-0.1,0.1
		c-1.3,1.3-3.2,2.2-5.2,2.2h-8.6c-0.5,0-1.1-0.1-1.6-0.2c1.3-0.8,2.3-2.1,2.8-3.5c0,0,6.1-0.1,6.1-0.1c2.2,0,4.1-1.1,4.8-2.6
		c0.1-0.2,0.1-0.4,0.2-0.7c0.5-1.4,2.2-2.2,3.4-2.3c0.2,0.6,0.3,1.3,0.3,2C74.2,42.8,73.7,44.2,72.9,45.4z M58.2,54.5l8.6,0
		c0.5,0,1.1,0.1,1.6,0.2c-1.3,0.8-2.3,2.1-2.8,3.5c0,0,0,0-0.1,0l-6,0.1c-2.2,0-4.1,1.1-4.8,2.6c-0.1,0.2-0.1,0.4-0.2,0.7
		c-0.5,1.4-2.2,2.2-3.4,2.3c-0.2-0.6-0.3-1.3-0.3-2c0-1.4,0.4-2.6,1-3.7c0.1-0.1,0.2-0.3,0.3-0.4c0.1-0.2,0.3-0.3,0.4-0.5
		c0,0,0,0,0.1-0.1c0.1-0.1,0.1-0.1,0.2-0.2c0-0.1,0.1-0.1,0.1-0.2c0,0,0.1-0.1,0.1-0.1C54.3,55.3,56.2,54.5,58.2,54.5z M54.9,62.8
		c0.1-0.2,0.1-0.4,0.2-0.7c0.5-1.4,2.2-2.2,3.4-2.3c0.2,0.6,0.3,1.3,0.3,2c0,1.5-0.5,2.9-1.3,4.1c0,0,0,0,0,0h0
		c-0.1,0.2-0.3,0.3-0.4,0.5c0,0,0,0-0.1,0.1c-0.1,0.1-0.1,0.1-0.2,0.2c0,0.1-0.1,0.1-0.1,0.2c0,0-0.1,0.1-0.1,0.1
		c-1.3,1.3-3.2,2.2-5.2,2.2l-8.6,0c-0.5,0-1.1-0.1-1.6-0.2c1.3-0.8,2.3-2.1,2.8-3.5c0,0,6.1-0.1,6.1-0.1
		C52.4,65.4,54.3,64.3,54.9,62.8z M42.8,75h8.6c0.5,0,1.1,0.1,1.6,0.2c-1.3,0.8-2.3,2.1-2.8,3.5c0,0,0,0-0.1,0l-6,0.1
		c-2.2,0-4.1,1.1-4.8,2.6c-0.1,0.2-0.1,0.4-0.2,0.7c-0.5,1.4-2.2,2.2-3.4,2.3c-0.2-0.6-0.3-1.3-0.3-2c0-1.4,0.4-2.6,1-3.7
		c0.1-0.1,0.2-0.3,0.3-0.4c0.1-0.2,0.3-0.3,0.4-0.5c0,0,0,0,0.1-0.1c0.1-0.1,0.1-0.1,0.2-0.2c0-0.1,0.1-0.1,0.1-0.2
		c0,0,0.1-0.1,0.1-0.1C38.9,75.8,40.8,75,42.8,75z M39.5,83.3c0.1-0.2,0.1-0.4,0.2-0.7c0.5-1.4,2.2-2.2,3.4-2.3
		c0.2,0.6,0.3,1.3,0.3,2c0,1.5-0.5,2.9-1.3,4.1c0,0,0,0,0,0l0,0c-0.1,0.2-0.3,0.3-0.4,0.5c0,0,0,0-0.1,0.1c-0.1,0.1-0.1,0.1-0.2,0.2
		c0,0.1-0.1,0.1-0.1,0.2c0,0-0.1,0.1-0.1,0.1c-1.3,1.3-3.2,2.2-5.2,2.2h-8.6c-0.5,0-1.1-0.1-1.6-0.2c1.3-0.8,2.3-2.1,2.8-3.5
		c0,0,6.1-0.1,6.1-0.1C37,85.9,38.9,84.8,39.5,83.3z M27.4,95.4l8.6,0c0.5,0,1.1,0.1,1.6,0.2c-1.3,0.8-2.3,2.1-2.8,3.5
		c0,0,0,0-0.1,0l-6,0.1c-2.2,0-4.1,1.1-4.8,2.6c-0.1,0.2-0.1,0.4-0.2,0.7c-0.5,1.4-2.2,2.2-3.4,2.3c-0.2-0.6-0.3-1.3-0.3-2
		c0-1.4,0.4-2.6,1-3.7c0.1-0.1,0.2-0.3,0.3-0.4c0.1-0.2,0.3-0.3,0.4-0.5c0,0,0,0,0.1-0.1c0.1-0.1,0.1-0.1,0.2-0.2
		c0-0.1,0.1-0.1,0.1-0.2c0,0,0.1-0.1,0.1-0.1C23.6,96.3,25.4,95.4,27.4,95.4z M36.5,99.1c0.1-0.1,0.2-0.3,0.3-0.4
		c0.1-0.2,0.3-0.3,0.4-0.5c0,0,0,0,0.1-0.1c0.1-0.1,0.1-0.1,0.2-0.2c0-0.1,0.1-0.1,0.1-0.2c0,0,0.1-0.1,0.1-0.1
		c1.3-1.3,3.2-2.2,5.2-2.2l8.6,0c0.5,0,1.1,0.1,1.6,0.2c-1.3,0.8-2.3,2.1-2.8,3.5c0,0,0,0-0.1,0l-6,0.1c-2.2,0-4.1,1.1-4.8,2.6
		c-0.1,0.2-0.1,0.4-0.2,0.7c-0.5,1.4-2.2,2.2-3.4,2.3c-0.2-0.6-0.3-1.3-0.3-2C35.4,101.5,35.8,100.2,36.5,99.1z M50.1,106.3
		c2.2,0,4.1-1.1,4.8-2.6c0.1-0.2,0.1-0.4,0.2-0.7c0.5-1.3,2-2.1,3.2-2.3c-0.8,2.4-1.5,5-2.1,7.5c-1.3,1.1-3,1.8-4.8,1.8l-8.6,0
		c-0.5,0-1.1-0.1-1.6-0.2c1.3-0.8,2.3-2.1,2.8-3.5C44.1,106.4,50.1,106.3,50.1,106.3z M54.8,137.2c0.2,1.5,0.4,3,0.6,4.4
		c-0.3,0.3-0.6,0.7-0.7,1.1c-0.1,0.2-0.1,0.4-0.2,0.7c-0.5,1.4-2.2,2.2-3.4,2.3c-0.2-0.6-0.3-1.3-0.3-2c0-1.4,0.4-2.6,1-3.7
		c0.1-0.1,0.2-0.3,0.3-0.4c0.1-0.2,0.3-0.3,0.4-0.5c0,0,0,0,0.1-0.1c0.1-0.1,0.1-0.1,0.2-0.2c0-0.1,0.1-0.1,0.1-0.2
		c0,0,0.1-0.1,0.1-0.1C53.5,138,54.1,137.6,54.8,137.2z M54.3,123.3c-0.7,1.1-2.1,1.8-3.2,1.9c-0.2-0.6-0.3-1.3-0.3-2
		c0-1.4,0.4-2.6,1-3.7c0.1-0.1,0.2-0.3,0.3-0.4c0.1-0.2,0.3-0.3,0.4-0.5c0,0,0,0,0.1-0.1c0.1-0.1,0.1-0.1,0.2-0.2
		c0-0.1,0.1-0.1,0.1-0.2c0,0,0.1-0.1,0.1-0.1c0.5-0.5,1.1-1,1.8-1.3C54.5,118.9,54.4,121.1,54.3,123.3z M42.8,115.9l8.6,0
		c0.5,0,1.1,0.1,1.6,0.2c-1.3,0.8-2.3,2.1-2.8,3.5c0,0,0,0-0.1,0l-6,0.1c-2.2,0-4.1,1.1-4.8,2.6c-0.1,0.2-0.1,0.4-0.2,0.7
		c-0.5,1.4-2.2,2.2-3.4,2.3c-0.2-0.6-0.3-1.3-0.3-2c0-1.4,0.4-2.6,1-3.7c0.1-0.1,0.2-0.3,0.3-0.4c0.1-0.2,0.3-0.3,0.4-0.5
		c0,0,0,0,0.1-0.1c0.1-0.1,0.1-0.1,0.2-0.2c0-0.1,0.1-0.1,0.1-0.2c0,0,0.1-0.1,0.1-0.1C38.9,116.8,40.8,115.9,42.8,115.9z
		 M50.1,126.8c1.7,0,3.2-0.6,4.1-1.6c0,0.6,0,1.2,0,1.7c0,1,0,2,0.1,3c-0.9,0.4-1.9,0.6-2.9,0.6l-8.6,0c-0.5,0-1.1-0.1-1.6-0.2
		c1.3-0.8,2.3-2.1,2.8-3.5C44.1,126.9,50.1,126.8,50.1,126.8z M42.8,136.4l8.6,0c0.5,0,1.1,0.1,1.6,0.2c-1.3,0.8-2.3,2.1-2.8,3.5
		c0,0,0,0-0.1,0l-6,0.1c-2.2,0-4.1,1.1-4.8,2.6c-0.1,0.2-0.1,0.4-0.2,0.7c-0.5,1.4-2.2,2.2-3.4,2.3c-0.2-0.6-0.3-1.3-0.3-2
		c0-1.4,0.4-2.6,1-3.7c0.1-0.1,0.2-0.3,0.3-0.4c0.1-0.2,0.3-0.3,0.4-0.5c0,0,0,0,0.1-0.1c0.1-0.1,0.1-0.1,0.2-0.2
		c0-0.1,0.1-0.1,0.1-0.2c0,0,0.1-0.1,0.1-0.1C38.9,137.2,40.8,136.4,42.8,136.4z M50.1,147.3c2.2,0,4.1-1.1,4.8-2.6
		c0.1-0.2,0.1-0.4,0.2-0.7c0.1-0.3,0.3-0.6,0.6-0.9c0.3,1.9,0.7,3.7,1.2,5.5c0,0,0,0,0,0c0,0.1-0.1,0.1-0.1,0.2c0,0-0.1,0.1-0.1,0.1
		c-1.3,1.3-3.2,2.2-5.2,2.2h-8.6c-0.5,0-1.1-0.1-1.6-0.2c1.3-0.8,2.3-2.1,2.8-3.5C44.1,147.3,50.1,147.3,50.1,147.3z M42.8,156.8
		l8.6,0c0.5,0,1.1,0.1,1.6,0.2c-1.3,0.8-2.3,2.1-2.8,3.5c0,0,0,0-0.1,0l-6,0.1c-2.2,0-4.1,1.1-4.8,2.6c-0.1,0.2-0.1,0.4-0.2,0.7
		c-0.5,1.4-2.2,2.2-3.4,2.3c-0.2-0.6-0.3-1.3-0.3-2c0-1.4,0.4-2.6,1-3.7c0.1-0.1,0.2-0.3,0.3-0.4c0.1-0.2,0.3-0.3,0.4-0.5
		c0,0,0,0,0.1-0.1c0.1-0.1,0.1-0.1,0.2-0.2c0-0.1,0.1-0.1,0.1-0.2c0,0,0.1-0.1,0.1-0.1C38.9,157.7,40.8,156.8,42.8,156.8z
		 M50.1,167.8c2.2,0,4.1-1.1,4.8-2.6c0.1-0.2,0.1-0.4,0.2-0.7c0.5-1.4,2.2-2.2,3.4-2.3c0.2,0.6,0.3,1.3,0.3,2c0,1.5-0.5,2.9-1.3,4.1
		c0,0,0,0,0,0h0c-0.1,0.2-0.3,0.3-0.4,0.5c0,0,0,0-0.1,0.1c-0.1,0.1-0.1,0.1-0.2,0.2c0,0.1-0.1,0.1-0.1,0.2c0,0-0.1,0.1-0.1,0.1
		c-1.3,1.3-3.2,2.2-5.2,2.2l-8.6,0c-0.5,0-1.1-0.1-1.6-0.2c1.3-0.8,2.3-2.1,2.8-3.5C44.1,167.8,50.1,167.8,50.1,167.8z M42.8,177.3
		l8.6,0c0.5,0,1.1,0.1,1.6,0.2c-1.3,0.8-2.3,2.1-2.8,3.5c0,0,0,0-0.1,0l-6,0.1c-2.2,0-4.1,1.1-4.8,2.6c-0.1,0.2-0.1,0.4-0.2,0.7
		c-0.5,1.4-2.2,2.2-3.4,2.3c-0.2-0.6-0.3-1.3-0.3-2c0-1.4,0.4-2.6,1-3.7c0.1-0.1,0.2-0.3,0.3-0.4c0.1-0.2,0.3-0.3,0.4-0.5
		c0,0,0,0,0.1-0.1c0.1-0.1,0.1-0.1,0.2-0.2c0-0.1,0.1-0.1,0.1-0.2c0,0,0.1-0.1,0.1-0.1C38.9,178.2,40.8,177.3,42.8,177.3z M51.8,181
		c0.1-0.1,0.2-0.3,0.3-0.4c0.1-0.2,0.3-0.3,0.4-0.5c0,0,0,0,0.1-0.1c0.1-0.1,0.1-0.1,0.2-0.2c0-0.1,0.1-0.1,0.1-0.2
		c0,0,0.1-0.1,0.1-0.1c1.3-1.3,3.2-2.2,5.2-2.2l8.6,0c0.5,0,1.1,0.1,1.6,0.2c-1.3,0.8-2.3,2.1-2.8,3.5c0,0,0,0-0.1,0l-6,0.1
		c-2.2,0-4.1,1.1-4.8,2.6c-0.1,0.2-0.1,0.4-0.2,0.7c-0.5,1.4-2.2,2.2-3.4,2.3c-0.2-0.6-0.3-1.3-0.3-2
		C50.8,183.3,51.2,182.1,51.8,181z M65.5,188.2c2.2,0,4.1-1.1,4.8-2.6c0.1-0.2,0.1-0.4,0.2-0.7c0.5-1.4,2.2-2.2,3.4-2.3
		c0.2,0.6,0.3,1.3,0.3,2c0,1.5-0.5,2.9-1.3,4.1c0,0,0,0,0,0l0,0c-0.1,0.2-0.3,0.3-0.4,0.5c0,0,0,0-0.1,0.1c-0.1,0.1-0.1,0.1-0.2,0.2
		c0,0.1-0.1,0.1-0.1,0.2c0,0-0.1,0.1-0.1,0.1c-1.3,1.3-3.2,2.2-5.2,2.2h-8.6c-0.5,0-1.1-0.1-1.6-0.2c1.3-0.8,2.3-2.1,2.8-3.5
		C59.4,188.3,65.5,188.2,65.5,188.2z M58.2,197.8l8.6,0c0.5,0,1.1,0.1,1.6,0.2c-1.3,0.8-2.3,2.1-2.8,3.5c0,0,0,0-0.1,0l-6,0.1
		c-2.2,0-4.1,1.1-4.8,2.6c-0.1,0.2-0.1,0.4-0.2,0.7c-0.5,1.4-2.2,2.2-3.4,2.3c-0.2-0.6-0.3-1.3-0.3-2c0-1.4,0.4-2.6,1-3.7
		c0.1-0.1,0.2-0.3,0.3-0.4c0.1-0.2,0.3-0.3,0.4-0.5c0,0,0,0,0.1-0.1c0.1-0.1,0.1-0.1,0.2-0.2c0-0.1,0.1-0.1,0.1-0.2
		c0,0,0.1-0.1,0.1-0.1C54.3,198.6,56.2,197.8,58.2,197.8z M67.3,201.4c0.1-0.1,0.2-0.3,0.3-0.4c0.1-0.2,0.3-0.3,0.4-0.5
		c0,0,0,0,0.1-0.1c0.1-0.1,0.1-0.1,0.2-0.2c0-0.1,0.1-0.1,0.1-0.2c0,0,0.1-0.1,0.1-0.1c1.3-1.3,3.2-2.2,5.2-2.2l8.6,0
		c0.5,0,1.1,0.1,1.6,0.2c-1.3,0.8-2.3,2.1-2.8,3.5c0,0,0,0-0.1,0l-6,0.1c-2.2,0-4.1,1.1-4.8,2.6c-0.1,0.2-0.1,0.4-0.2,0.7
		c-0.5,1.4-2.2,2.2-3.4,2.3c-0.2-0.6-0.3-1.3-0.3-2C66.3,203.8,66.6,202.5,67.3,201.4z M81,208.7c2.2,0,4.1-1.1,4.8-2.6
		c0.1-0.2,0.1-0.4,0.2-0.7c0.5-1.4,2.2-2.2,3.4-2.3c0.2,0.6,0.3,1.3,0.3,2c0,1.5-0.5,2.9-1.3,4.1c0,0,0,0,0,0l0,0
		c-0.1,0.2-0.3,0.3-0.4,0.5c0,0,0,0-0.1,0.1c-0.1,0.1-0.1,0.1-0.2,0.2c0,0.1-0.1,0.1-0.1,0.2c0,0-0.1,0.1-0.1,0.1
		c-1.3,1.3-3.2,2.2-5.2,2.2l-8.6,0c-0.5,0-1.1-0.1-1.6-0.2c1.3-0.8,2.3-2.1,2.8-3.5C74.9,208.7,81,208.7,81,208.7z M90.2,208.7
		c0,0,6.1-0.1,6.1-0.1c2.2,0,4.1-1.1,4.8-2.6c0.1-0.2,0.1-0.4,0.2-0.7c0.5-1.4,2.2-2.2,3.4-2.3c0.2,0.6,0.3,1.3,0.3,2
		c0,1.5-0.5,2.9-1.3,4.1c0,0,0,0,0,0l0,0c-0.1,0.2-0.3,0.3-0.4,0.5c0,0,0,0-0.1,0.1c-0.1,0.1-0.1,0.1-0.2,0.2c0,0.1-0.1,0.1-0.1,0.2
		c0,0-0.1,0.1-0.1,0.1c-1.3,1.3-3.2,2.2-5.2,2.2l-8.6,0c-0.5,0-1.1-0.1-1.6-0.2C88.7,211.4,89.7,210.2,90.2,208.7z M89,218.2l8.6,0
		c0.5,0,1.1,0.1,1.6,0.2c-1.3,0.8-2.3,2.1-2.8,3.5c0,0,0,0-0.1,0l-6,0.1c-2.2,0-4.1,1.1-4.8,2.6c-0.1,0.2-0.1,0.4-0.2,0.7
		c-0.5,1.4-2.2,2.2-3.4,2.3c-0.2-0.6-0.3-1.3-0.3-2c0-1.4,0.4-2.6,1-3.7c0.1-0.1,0.2-0.3,0.3-0.4c0.1-0.2,0.3-0.3,0.4-0.5
		c0,0,0,0,0.1-0.1c0.1-0.1,0.1-0.1,0.2-0.2c0-0.1,0.1-0.1,0.1-0.2c0,0,0.1-0.1,0.1-0.1C85.1,219.1,86.9,218.2,89,218.2z M98,221.9
		c0.1-0.1,0.2-0.3,0.3-0.4c0.1-0.2,0.3-0.3,0.4-0.5c0,0,0,0,0.1-0.1c0.1-0.1,0.1-0.1,0.2-0.2c0-0.1,0.1-0.1,0.1-0.2
		c0,0,0.1-0.1,0.1-0.1c1.3-1.3,3.2-2.2,5.2-2.2l8.6,0c0.6,0,1.1,0.1,1.6,0.2c-1.3,0.8-2.3,2.1-2.8,3.5c0,0,0,0-0.1,0l-6,0.1
		c-2.2,0-4.1,1.1-4.8,2.6c-0.1,0.2-0.1,0.4-0.2,0.7c-0.5,1.4-2.2,2.2-3.4,2.3c-0.2-0.6-0.3-1.3-0.3-2C97,224.2,97.4,223,98,221.9z
		 M113.4,221.9c0.1-0.1,0.2-0.3,0.3-0.4c0.1-0.2,0.3-0.3,0.4-0.5c0,0,0,0,0.1-0.1c0.1-0.1,0.1-0.1,0.2-0.2c0-0.1,0.1-0.1,0.1-0.2
		c0,0,0.1-0.1,0.1-0.1c1.3-1.3,3.2-2.2,5.2-2.2l8.6,0c0.5,0,1.1,0.1,1.6,0.2c-1.3,0.8-2.3,2.1-2.8,3.5c0,0,0,0-0.1,0l-6,0.1
		c-2.2,0-4.1,1.1-4.8,2.6c-0.1,0.2-0.1,0.4-0.2,0.7c-0.5,1.4-2.2,2.2-3.4,2.3c-0.2-0.6-0.3-1.3-0.3-2
		C112.3,224.2,112.7,223,113.4,221.9z M128.6,221.9c0.1-0.1,0.2-0.3,0.3-0.4c0.1-0.2,0.3-0.3,0.4-0.5c0,0,0,0,0.1-0.1
		c0.1-0.1,0.1-0.1,0.2-0.2c0-0.1,0.1-0.1,0.1-0.2c0,0,0.1-0.1,0.1-0.1c1.3-1.3,3.2-2.2,5.2-2.2l8.6,0c0.5,0,1.1,0.1,1.6,0.2
		c-1.3,0.8-2.3,2.1-2.8,3.5c0,0,0,0-0.1,0l-6,0.1c-2.2,0-4.1,1.1-4.8,2.6c-0.1,0.2-0.1,0.4-0.2,0.7c-0.5,1.4-2.2,2.2-3.4,2.3
		c-0.2-0.6-0.3-1.3-0.3-2C127.6,224.2,128,223,128.6,221.9z M144,221.9c0.1-0.1,0.2-0.3,0.3-0.4c0.1-0.2,0.3-0.3,0.4-0.5
		c0,0,0,0,0.1-0.1c0.1-0.1,0.1-0.1,0.2-0.2c0-0.1,0.1-0.1,0.1-0.2c0,0,0.1-0.1,0.1-0.1c1.3-1.3,3.2-2.2,5.2-2.2l8.6,0
		c0.5,0,1.1,0.1,1.6,0.2c-1.3,0.8-2.3,2.1-2.8,3.5c0,0,0,0-0.1,0l-6,0.1c-2.2,0-4.1,1.1-4.8,2.6c-0.1,0.2-0.1,0.4-0.2,0.7
		c-0.5,1.4-2.2,2.2-3.4,2.3c-0.2-0.6-0.3-1.3-0.3-2C142.9,224.2,143.3,223,144,221.9z M159.3,221.9c0.1-0.1,0.2-0.3,0.3-0.4
		c0.1-0.2,0.3-0.3,0.4-0.5c0,0,0,0,0.1-0.1c0.1-0.1,0.1-0.1,0.2-0.2c0-0.1,0.1-0.1,0.1-0.2c0,0,0.1-0.1,0.1-0.1
		c1.3-1.3,3.2-2.2,5.2-2.2l8.6,0c0.5,0,1.1,0.1,1.6,0.2c-1.3,0.8-2.3,2.1-2.8,3.5c0,0,0,0-0.1,0l-6,0.1c-2.2,0-4.1,1.1-4.8,2.6
		c-0.1,0.2-0.1,0.4-0.2,0.7c-0.5,1.4-2.2,2.2-3.4,2.3c-0.2-0.6-0.3-1.3-0.3-2C158.3,224.2,158.7,223,159.3,221.9z M177.5,204.1
		c-0.1,0.2-0.1,0.4-0.2,0.7c-0.5,1.4-2.2,2.2-3.4,2.3c-0.2-0.6-0.3-1.3-0.3-2c0-1.4,0.4-2.6,1-3.7c0.1-0.1,0.2-0.3,0.3-0.4
		c0.1-0.2,0.3-0.3,0.4-0.5c0,0,0,0,0.1-0.1c0.1-0.1,0.1-0.1,0.2-0.2c0-0.1,0.1-0.1,0.1-0.2c0,0,0.1-0.1,0.1-0.1
		c1.3-1.3,3.2-2.2,5.2-2.2l8.6,0c0.5,0,1.1,0.1,1.6,0.2c-1.3,0.8-2.3,2.1-2.8,3.5c0,0,0,0-0.1,0l-6,0.1
		C180.1,201.5,178.2,202.6,177.5,204.1z M179.7,189.5C179.6,189.6,179.6,189.6,179.7,189.5c-0.1,0.1-0.2,0.2-0.2,0.2
		c-0.7,0.7-1.6,1.3-2.6,1.7C177.8,190.8,178.7,190.2,179.7,189.5z M177.8,62.7c0.1-0.2,0.1-0.4,0.1-0.6c0.5-1.4,2.2-2.2,3.4-2.3
		c0.2,0.6,0.3,1.3,0.3,2c0,1.1-0.3,2.2-0.7,3.1C179.9,64.1,178.8,63.4,177.8,62.7z M189.6,191.9h-8.6c-0.5,0-1.1-0.1-1.6-0.2
		c1.3-0.8,2.3-2.1,2.8-3.5c0,0,6.1-0.1,6.1-0.1c2.2,0,4.1-1.1,4.8-2.6c0.1-0.2,0.1-0.4,0.2-0.7c0.5-1.4,2.2-2.2,3.4-2.3
		c0.2,0.6,0.3,1.3,0.3,2c0,1.5-0.5,2.9-1.3,4.1c0,0,0,0,0,0h0c-0.1,0.2-0.3,0.3-0.4,0.5c0,0,0,0-0.1,0.1c-0.1,0.1-0.1,0.1-0.2,0.2
		c0,0.1-0.1,0.1-0.1,0.2c0,0-0.1,0.1-0.1,0.1C193.5,191.1,191.7,191.9,189.6,191.9z M197.5,181c-2.2,0-4.1,1.1-4.8,2.6
		c-0.1,0.2-0.1,0.4-0.2,0.7c-0.5,1.4-2.2,2.2-3.4,2.3c-0.2-0.6-0.3-1.3-0.3-2c0-1.4,0.4-2.6,1-3.7c0.8-0.8,1.7-1.7,2.5-2.6
		c1.1-0.7,2.4-1.1,3.8-1.1l0.1,0l4.4,3.7L197.5,181z M194.4,77.3c-0.5-0.5-0.9-1-1.4-1.5c1-0.5,2.1-0.8,3.3-0.8l0.9,0L194.4,77.3z
		 M188.3,58.1l-6,0.1c-2.2,0-4.1,1.1-4.8,2.6c-0.1,0.2-0.1,0.4-0.2,0.7c-0.1,0.2-0.2,0.4-0.4,0.6c-1-0.7-2.1-1.3-3.1-1.9
		c0.2-0.7,0.4-1.4,0.8-2.1c0.1-0.1,0.2-0.3,0.3-0.4c0.1-0.2,0.3-0.3,0.4-0.5c0,0,0,0,0.1-0.1c0.1-0.1,0.1-0.1,0.2-0.2
		c0-0.1,0.1-0.1,0.1-0.2c0,0,0.1-0.1,0.1-0.1c1.3-1.3,3.2-2.2,5.2-2.2l8.6,0c0.5,0,1.1,0.1,1.6,0.2
		C189.9,55.5,188.9,56.7,188.3,58.1C188.4,58.2,188.4,58.1,188.3,58.1z M173,58.2C173,58.2,173,58.1,173,58.2l-2.8,0
		c-2.3-1.2-4.7-2.3-7.1-3.2c0.8-0.3,1.7-0.5,2.6-0.5l8.6,0c0.5,0,1.1,0.1,1.6,0.2C174.6,55.5,173.6,56.7,173,58.2z M165,45.4
		C165,45.4,165,45.4,165,45.4L165,45.4c-0.1,0.2-0.3,0.4-0.4,0.6c0,0,0,0-0.1,0.1c-0.1,0.1-0.1,0.1-0.2,0.2c0,0.1-0.1,0.1-0.1,0.2
		c0,0-0.1,0.1-0.1,0.1c-1.3,1.3-3.2,2.2-5.2,2.2h-8.6c-0.5,0-1.1-0.1-1.6-0.2c1.3-0.8,2.3-2.1,2.8-3.5c0,0,6.1-0.1,6.1-0.1
		c2.2,0,4.1-1.1,4.8-2.6c0.1-0.2,0.1-0.4,0.2-0.7c0.5-1.4,2.2-2.2,3.4-2.3c0.2,0.6,0.3,1.3,0.3,2C166.3,42.8,165.8,44.2,165,45.4z
		 M157.6,37.7l-6,0.1c-2.2,0-4.1,1.1-4.8,2.6c-0.1,0.2-0.1,0.4-0.2,0.7c-0.5,1.4-2.2,2.2-3.4,2.3c-0.2-0.6-0.3-1.3-0.3-2
		c0-1.4,0.4-2.6,1-3.7c0.1-0.1,0.2-0.3,0.3-0.4c0.1-0.2,0.3-0.3,0.4-0.5c0,0,0,0,0.1-0.1c0.1-0.1,0.1-0.1,0.2-0.2
		c0-0.1,0.1-0.1,0.1-0.2c0,0,0.1-0.1,0.1-0.1c1.3-1.3,3.2-2.2,5.2-2.2l8.6,0c0.5,0,1.1,0.1,1.6,0.2C159.2,35,158.2,36.2,157.6,37.7
		C157.6,37.7,157.6,37.7,157.6,37.7z M142.3,37.7C142.3,37.7,142.3,37.7,142.3,37.7l-6.1,0.1c-2.2,0-4.1,1.1-4.8,2.6
		c-0.1,0.2-0.1,0.4-0.2,0.7c-0.5,1.4-2.2,2.2-3.4,2.3c-0.2-0.6-0.3-1.3-0.3-2c0-1.4,0.4-2.6,1-3.7c0.1-0.1,0.2-0.3,0.3-0.4
		c0.1-0.2,0.3-0.3,0.4-0.5c0,0,0,0,0.1-0.1c0.1-0.1,0.1-0.1,0.2-0.2c0-0.1,0.1-0.1,0.1-0.2c0,0,0.1-0.1,0.1-0.1
		c1.3-1.3,3.2-2.2,5.2-2.2l8.6,0c0.5,0,1.1,0.1,1.6,0.2C143.8,35,142.8,36.2,142.3,37.7z M134.4,24.9
		C134.4,24.9,134.4,24.9,134.4,24.9L134.4,24.9c-0.1,0.2-0.3,0.4-0.4,0.6c0,0,0,0-0.1,0.1c-0.1,0.1-0.1,0.1-0.2,0.2
		c0,0.1-0.1,0.1-0.1,0.2c0,0-0.1,0.1-0.1,0.1c-1.3,1.3-3.2,2.2-5.2,2.2h-8.6c-0.5,0-1.1-0.1-1.6-0.2c1.3-0.8,2.3-2.1,2.8-3.5
		c0,0,6.1-0.1,6.1-0.1c2.2,0,4.1-1.1,4.8-2.6c0.1-0.2,0.1-0.4,0.2-0.7c0.5-1.4,2.2-2.2,3.4-2.3c0.2,0.6,0.3,1.3,0.3,2
		C135.7,22.3,135.2,23.7,134.4,24.9z M119,24.9C119,24.9,119,24.9,119,24.9L119,24.9c-0.1,0.2-0.3,0.4-0.4,0.6c0,0,0,0-0.1,0.1
		c-0.1,0.1-0.1,0.1-0.2,0.2c0,0.1-0.1,0.1-0.1,0.2c0,0-0.1,0.1-0.1,0.1c-1.3,1.3-3.2,2.2-5.2,2.2h-8.6c-0.5,0-1.1-0.1-1.6-0.2
		c1.3-0.8,2.3-2.1,2.8-3.5c0,0,6.1-0.1,6.1-0.1c2.2,0,4.1-1.1,4.8-2.6c0.1-0.2,0.1-0.4,0.2-0.7c0.5-1.4,2.2-2.2,3.4-2.3
		c0.2,0.6,0.3,1.3,0.3,2C120.3,22.3,119.8,23.7,119,24.9z M103.7,24.9C103.7,24.9,103.6,24.9,103.7,24.9L103.7,24.9
		c-0.1,0.2-0.3,0.4-0.4,0.6c0,0,0,0-0.1,0.1c-0.1,0.1-0.1,0.1-0.2,0.2c0,0.1-0.1,0.1-0.1,0.2c0,0-0.1,0.1-0.1,0.1
		c-1.3,1.3-3.2,2.2-5.2,2.2H89c-0.5,0-1.1-0.1-1.6-0.2c1.3-0.8,2.3-2.1,2.8-3.5c0,0,6.1-0.1,6.1-0.1c2.2,0,4.1-1.1,4.8-2.6
		c0.1-0.2,0.1-0.4,0.2-0.7c0.5-1.4,2.2-2.2,3.4-2.3c0.2,0.6,0.3,1.3,0.3,2C104.9,22.3,104.5,23.7,103.7,24.9z M96.3,17.2l-6,0.1
		c-2.2,0-4.1,1.1-4.8,2.6c-0.1,0.2-0.1,0.4-0.2,0.7c-0.5,1.4-2.2,2.2-3.4,2.3c-0.2-0.6-0.3-1.3-0.3-2c0-1.4,0.4-2.6,1-3.7
		c0.1-0.1,0.2-0.3,0.3-0.4c0.1-0.2,0.3-0.3,0.4-0.5c0,0,0,0,0.1-0.1c0.1-0.1,0.1-0.1,0.2-0.2c0-0.1,0.1-0.1,0.1-0.2
		c0,0,0.1-0.1,0.1-0.1c1.3-1.3,3.2-2.2,5.2-2.2l8.6,0c0.5,0,1.1,0.1,1.6,0.2C97.9,14.5,96.9,15.8,96.3,17.2
		C96.3,17.2,96.3,17.2,96.3,17.2z M85.7,21.8c0.1-0.2,0.1-0.4,0.2-0.7c0.5-1.4,2.2-2.2,3.4-2.3c0.2,0.6,0.3,1.3,0.3,2
		c0,1.5-0.5,2.9-1.3,4.1c0,0,0,0,0,0l0,0c-0.1,0.2-0.3,0.3-0.4,0.5c0,0,0,0-0.1,0.1c-0.1,0.1-0.1,0.1-0.2,0.2c0,0.1-0.1,0.1-0.1,0.2
		c0,0-0.1,0.1-0.1,0.1c-1.3,1.3-3.2,2.2-5.2,2.2h-8.6c-0.5,0-1.1-0.1-1.6-0.2c1.3-0.8,2.3-2.1,2.8-3.5c0,0,6.1-0.1,6.1-0.1
		C83.2,24.4,85.1,23.3,85.7,21.8z M73.6,34l8.6,0c0.5,0,1.1,0.1,1.6,0.2c-1.3,0.8-2.3,2.1-2.8,3.5c0,0,0,0-0.1,0l-6,0.1
		c-2.2,0-4.1,1.1-4.8,2.6C70,40.6,70,40.8,70,41c-0.5,1.4-2.2,2.2-3.4,2.3c-0.2-0.6-0.3-1.3-0.3-2c0-1.4,0.4-2.6,1-3.7
		c0.1-0.1,0.2-0.3,0.3-0.4c0.1-0.2,0.3-0.3,0.4-0.5c0,0,0,0,0.1-0.1c0.1-0.1,0.1-0.1,0.2-0.2c0-0.1,0.1-0.1,0.1-0.2
		c0,0,0.1-0.1,0.1-0.1C69.8,34.8,71.6,34,73.6,34z M65.5,37.7C65.5,37.7,65.5,37.7,65.5,37.7l-6.1,0.1c-2.2,0-4.1,1.1-4.8,2.6
		c-0.1,0.2-0.1,0.4-0.2,0.7c-0.5,1.4-2.2,2.2-3.4,2.3c-0.2-0.6-0.3-1.3-0.3-2c0-1.4,0.4-2.6,1-3.7c0.1-0.1,0.2-0.3,0.3-0.4
		c0.1-0.2,0.3-0.3,0.4-0.5c0,0,0,0,0.1-0.1c0.1-0.1,0.1-0.1,0.2-0.2c0-0.1,0.1-0.1,0.1-0.2c0,0,0.1-0.1,0.1-0.1
		c1.3-1.3,3.2-2.2,5.2-2.2l8.6,0c0.5,0,1.1,0.1,1.6,0.2C67.1,35,66.1,36.3,65.5,37.7z M54.9,42.3c0.1-0.2,0.1-0.4,0.2-0.7
		c0.5-1.4,2.2-2.2,3.4-2.3c0.2,0.6,0.3,1.3,0.3,2c0,1.5-0.5,2.9-1.3,4.1c0,0,0,0,0,0l0,0c-0.1,0.2-0.3,0.3-0.4,0.5c0,0,0,0-0.1,0.1
		c-0.1,0.1-0.1,0.1-0.2,0.2c0,0.1-0.1,0.1-0.1,0.2c0,0-0.1,0.1-0.1,0.1c-1.3,1.3-3.2,2.2-5.2,2.2h-8.6c-0.5,0-1.1-0.1-1.6-0.2
		c1.3-0.8,2.3-2.1,2.8-3.5c0,0,6.1-0.1,6.1-0.1C52.4,44.9,54.3,43.8,54.9,42.3z M42.8,54.5l8.6,0c0.5,0,1.1,0.1,1.6,0.2
		c-1.3,0.8-2.3,2.1-2.8,3.5c0,0,0,0-0.1,0l-6,0.1c-2.2,0-4.1,1.1-4.8,2.6c-0.1,0.2-0.1,0.4-0.2,0.7c-0.5,1.4-2.2,2.2-3.4,2.3
		c-0.2-0.6-0.3-1.3-0.3-2c0-1.4,0.4-2.6,1-3.7c0.1-0.1,0.2-0.3,0.3-0.4c0.1-0.2,0.3-0.3,0.4-0.5c0,0,0,0,0.1-0.1
		c0.1-0.1,0.1-0.1,0.2-0.2c0-0.1,0.1-0.1,0.1-0.2c0,0,0.1-0.1,0.1-0.1C38.9,55.3,40.8,54.5,42.8,54.5z M39.5,62.8
		c0.1-0.2,0.1-0.4,0.2-0.7c0.5-1.4,2.2-2.2,3.4-2.3c0.2,0.6,0.3,1.3,0.3,2c0,1.5-0.5,2.9-1.3,4.1c0,0,0,0,0,0h0
		c-0.1,0.2-0.3,0.3-0.4,0.5c0,0,0,0-0.1,0.1c-0.1,0.1-0.1,0.1-0.2,0.2c0,0.1-0.1,0.1-0.1,0.2c0,0-0.1,0.1-0.1,0.1
		c-1.3,1.3-3.2,2.2-5.2,2.2l-8.6,0c-0.5,0-1.1-0.1-1.6-0.2c1.3-0.8,2.3-2.1,2.8-3.5c0,0,6.1-0.1,6.1-0.1
		C37,65.4,38.9,64.3,39.5,62.8z M27.4,75H36c0.5,0,1.1,0.1,1.6,0.2c-1.3,0.8-2.3,2.1-2.8,3.5c0,0,0,0-0.1,0l-6,0.1
		c-2.2,0-4.1,1.1-4.8,2.6c-0.1,0.2-0.1,0.4-0.2,0.7c-0.5,1.4-2.2,2.2-3.4,2.3c-0.2-0.6-0.3-1.3-0.3-2c0-1.4,0.4-2.6,1-3.7
		c0.1-0.1,0.2-0.3,0.3-0.4c0.1-0.2,0.3-0.3,0.4-0.5c0,0,0,0,0.1-0.1c0.1-0.1,0.1-0.1,0.2-0.2c0-0.1,0.1-0.1,0.1-0.2
		c0,0,0.1-0.1,0.1-0.1C23.6,75.8,25.4,75,27.4,75z M24.2,83.3c0.1-0.2,0.1-0.4,0.2-0.7c0.5-1.4,2.2-2.2,3.4-2.3
		c0.2,0.6,0.3,1.3,0.3,2c0,1.5-0.5,2.9-1.3,4.1c0,0,0,0,0,0l0,0c-0.1,0.2-0.3,0.3-0.4,0.5c0,0,0,0-0.1,0.1c-0.1,0.1-0.1,0.1-0.2,0.2
		c0,0.1-0.1,0.1-0.1,0.2c0,0-0.1,0.1-0.1,0.1c-1.3,1.3-3.2,2.2-5.2,2.2h-8.6c-0.6,0-1.1-0.1-1.6-0.2c1.3-0.8,2.3-2.1,2.8-3.5
		c0,0,6.1-0.1,6.1-0.1C21.7,85.9,23.6,84.8,24.2,83.3z M12.1,95.4l8.6,0c0.5,0,1.1,0.1,1.6,0.2c-1.3,0.8-2.3,2.1-2.8,3.5
		c0,0,0,0-0.1,0l-6,0.1c-2.2,0-4.1,1.1-4.8,2.6c-0.1,0.2-0.1,0.4-0.2,0.7c-0.5,1.4-2.2,2.2-3.4,2.3c-0.2-0.6-0.3-1.3-0.3-2
		c0-1.4,0.4-2.6,1-3.7c0.1-0.1,0.2-0.3,0.3-0.4c0.1-0.2,0.3-0.3,0.4-0.5c0,0,0,0,0.1-0.1C6.5,98,6.6,98,6.6,97.9
		c0-0.1,0.1-0.1,0.1-0.2c0,0,0.1-0.1,0.1-0.1C8.2,96.3,10.1,95.4,12.1,95.4z M19.4,106.3c2.2,0,4.1-1.1,4.8-2.6
		c0.1-0.2,0.1-0.4,0.2-0.7c0.5-1.4,2.2-2.2,3.4-2.3c0.2,0.6,0.3,1.3,0.3,2c0,1.5-0.5,2.9-1.3,4.1c0,0,0,0,0,0h0
		c-0.1,0.2-0.3,0.3-0.4,0.5c0,0,0,0-0.1,0.1c-0.1,0.1-0.1,0.1-0.2,0.2c0,0.1-0.1,0.1-0.1,0.2c0,0-0.1,0.1-0.1,0.1
		c-1.3,1.3-3.2,2.2-5.2,2.2l-8.6,0c-0.6,0-1.1-0.1-1.6-0.2c1.3-0.8,2.3-2.1,2.8-3.5C13.4,106.4,19.4,106.3,19.4,106.3z M28.7,106.4
		c0,0,6.1-0.1,6.1-0.1c2.2,0,4.1-1.1,4.8-2.6c0.1-0.2,0.1-0.4,0.2-0.7c0.5-1.4,2.2-2.2,3.4-2.3c0.2,0.6,0.3,1.3,0.3,2
		c0,1.5-0.5,2.9-1.3,4.1c0,0,0,0,0,0h0c-0.1,0.2-0.3,0.3-0.4,0.5c0,0,0,0-0.1,0.1c-0.1,0.1-0.1,0.1-0.2,0.2c0,0.1-0.1,0.1-0.1,0.2
		c0,0-0.1,0.1-0.1,0.1c-1.3,1.3-3.2,2.2-5.2,2.2l-8.6,0c-0.5,0-1.1-0.1-1.6-0.2C27.1,109.1,28.1,107.8,28.7,106.4z M27.4,115.9
		l8.6,0c0.5,0,1.1,0.1,1.6,0.2c-1.3,0.8-2.3,2.1-2.8,3.5c0,0,0,0-0.1,0l-6,0.1c-2.2,0-4.1,1.1-4.8,2.6c-0.1,0.2-0.1,0.4-0.2,0.7
		c-0.5,1.4-2.2,2.2-3.4,2.3c-0.2-0.6-0.3-1.3-0.3-2c0-1.4,0.4-2.6,1-3.7c0.1-0.1,0.2-0.3,0.3-0.4c0.1-0.2,0.3-0.3,0.4-0.5
		c0,0,0,0,0.1-0.1c0.1-0.1,0.1-0.1,0.2-0.2c0-0.1,0.1-0.1,0.1-0.2c0,0,0.1-0.1,0.1-0.1C23.6,116.8,25.4,115.9,27.4,115.9z
		 M34.8,126.8c2.2,0,4.1-1.1,4.8-2.6c0.1-0.2,0.1-0.4,0.2-0.7c0.5-1.4,2.2-2.2,3.4-2.3c0.2,0.6,0.3,1.3,0.3,2c0,1.5-0.5,2.9-1.3,4.1
		c0,0,0,0,0,0h0c-0.1,0.2-0.3,0.3-0.4,0.5c0,0,0,0-0.1,0.1c-0.1,0.1-0.1,0.1-0.2,0.2c0,0.1-0.1,0.1-0.1,0.2c0,0-0.1,0.1-0.1,0.1
		c-1.3,1.3-3.2,2.2-5.2,2.2l-8.6,0c-0.5,0-1.1-0.1-1.6-0.2c1.3-0.8,2.3-2.1,2.8-3.5C28.7,126.9,34.8,126.8,34.8,126.8z M27.4,136.4
		l8.6,0c0.5,0,1.1,0.1,1.6,0.2c-1.3,0.8-2.3,2.1-2.8,3.5c0,0,0,0-0.1,0l-6,0.1c-2.2,0-4.1,1.1-4.8,2.6c-0.1,0.2-0.1,0.4-0.2,0.7
		c-0.5,1.4-2.2,2.2-3.4,2.3c-0.2-0.6-0.3-1.3-0.3-2c0-1.4,0.4-2.6,1-3.7c0.1-0.1,0.2-0.3,0.3-0.4c0.1-0.2,0.3-0.3,0.4-0.5
		c0,0,0,0,0.1-0.1c0.1-0.1,0.1-0.1,0.2-0.2c0-0.1,0.1-0.1,0.1-0.2c0,0,0.1-0.1,0.1-0.1C23.6,137.2,25.4,136.4,27.4,136.4z
		 M24.2,144.7c0.1-0.2,0.1-0.4,0.2-0.7c0.5-1.4,2.2-2.2,3.4-2.3c0.2,0.6,0.3,1.3,0.3,2c0,1.5-0.5,2.9-1.3,4.1c0,0,0,0,0,0h0
		c-0.1,0.2-0.3,0.3-0.4,0.5c0,0,0,0-0.1,0.1c-0.1,0.1-0.1,0.1-0.2,0.2c0,0.1-0.1,0.1-0.1,0.2c0,0-0.1,0.1-0.1,0.1
		c-1.3,1.3-3.2,2.2-5.2,2.2h-8.6c-0.6,0-1.1-0.1-1.6-0.2c1.3-0.8,2.3-2.1,2.8-3.5c0,0,6.1-0.1,6.1-0.1
		C21.7,147.3,23.6,146.2,24.2,144.7z M28.7,147.3c0,0,6.1-0.1,6.1-0.1c2.2,0,4.1-1.1,4.8-2.6c0.1-0.2,0.1-0.4,0.2-0.7
		c0.5-1.4,2.2-2.2,3.4-2.3c0.2,0.6,0.3,1.3,0.3,2c0,1.5-0.5,2.9-1.3,4.1c0,0,0,0,0,0h0c-0.1,0.2-0.3,0.3-0.4,0.5c0,0,0,0-0.1,0.1
		c-0.1,0.1-0.1,0.1-0.2,0.2c0,0.1-0.1,0.1-0.1,0.2c0,0-0.1,0.1-0.1,0.1c-1.3,1.3-3.2,2.2-5.2,2.2h-8.6c-0.5,0-1.1-0.1-1.6-0.2
		C27.1,150,28.1,148.8,28.7,147.3z M27.4,156.8l8.6,0c0.5,0,1.1,0.1,1.6,0.2c-1.3,0.8-2.3,2.1-2.8,3.5c0,0,0,0-0.1,0l-6,0.1
		c-2.2,0-4.1,1.1-4.8,2.6c-0.1,0.2-0.1,0.4-0.2,0.7c-0.5,1.4-2.2,2.2-3.4,2.3c-0.2-0.6-0.3-1.3-0.3-2c0-1.4,0.4-2.6,1-3.7
		c0.1-0.1,0.2-0.3,0.3-0.4c0.1-0.2,0.3-0.3,0.4-0.5c0,0,0,0,0.1-0.1c0.1-0.1,0.1-0.1,0.2-0.2c0-0.1,0.1-0.1,0.1-0.2
		c0,0,0.1-0.1,0.1-0.1C23.6,157.7,25.4,156.8,27.4,156.8z M24.2,165.1c0.1-0.2,0.1-0.4,0.2-0.7c0.5-1.4,2.2-2.2,3.4-2.3
		c0.2,0.6,0.3,1.3,0.3,2c0,1.5-0.5,2.9-1.3,4.1c0,0,0,0,0,0h0c-0.1,0.2-0.3,0.3-0.4,0.5c0,0,0,0-0.1,0.1c-0.1,0.1-0.1,0.1-0.2,0.2
		c0,0.1-0.1,0.1-0.1,0.2c0,0-0.1,0.1-0.1,0.1c-1.3,1.3-3.2,2.2-5.2,2.2l-8.6,0c-0.6,0-1.1-0.1-1.6-0.2c1.3-0.8,2.3-2.1,2.8-3.5
		c0,0,6.1-0.1,6.1-0.1C21.7,167.7,23.6,166.6,24.2,165.1z M28.7,167.8c0,0,6.1-0.1,6.1-0.1c2.2,0,4.1-1.1,4.8-2.6
		c0.1-0.2,0.1-0.4,0.2-0.7c0.5-1.4,2.2-2.2,3.4-2.3c0.2,0.6,0.3,1.3,0.3,2c0,1.5-0.5,2.9-1.3,4.1c0,0,0,0,0,0h0
		c-0.1,0.2-0.3,0.3-0.4,0.5c0,0,0,0-0.1,0.1c-0.1,0.1-0.1,0.1-0.2,0.2c0,0.1-0.1,0.1-0.1,0.2c0,0-0.1,0.1-0.1,0.1
		c-1.3,1.3-3.2,2.2-5.2,2.2l-8.6,0c-0.5,0-1.1-0.1-1.6-0.2C27.1,170.5,28.1,169.3,28.7,167.8z M27.4,177.3l8.6,0
		c0.5,0,1.1,0.1,1.6,0.2c-1.3,0.8-2.3,2.1-2.8,3.5c0,0,0,0-0.1,0l-6,0.1c-2.2,0-4.1,1.1-4.8,2.6c-0.1,0.2-0.1,0.4-0.2,0.7
		c-0.5,1.4-2.2,2.2-3.4,2.3c-0.2-0.6-0.3-1.3-0.3-2c0-1.4,0.4-2.6,1-3.7c0.1-0.1,0.2-0.3,0.3-0.4c0.1-0.2,0.3-0.3,0.4-0.5
		c0,0,0,0,0.1-0.1c0.1-0.1,0.1-0.1,0.2-0.2c0-0.1,0.1-0.1,0.1-0.2c0,0,0.1-0.1,0.1-0.1C23.6,178.2,25.4,177.3,27.4,177.3z
		 M34.8,188.2c2.2,0,4.1-1.1,4.8-2.6c0.1-0.2,0.1-0.4,0.2-0.7c0.5-1.4,2.2-2.2,3.4-2.3c0.2,0.6,0.3,1.3,0.3,2c0,1.5-0.5,2.9-1.3,4.1
		c0,0,0,0,0,0l0,0c-0.1,0.2-0.3,0.3-0.4,0.5c0,0,0,0-0.1,0.1c-0.1,0.1-0.1,0.1-0.2,0.2c0,0.1-0.1,0.1-0.1,0.2c0,0-0.1,0.1-0.1,0.1
		c-1.3,1.3-3.2,2.2-5.2,2.2h-8.6c-0.5,0-1.1-0.1-1.6-0.2c1.3-0.8,2.3-2.1,2.8-3.5C28.7,188.3,34.8,188.2,34.8,188.2z M44.1,188.3
		c0,0,6.1-0.1,6.1-0.1c2.2,0,4.1-1.1,4.8-2.6c0.1-0.2,0.1-0.4,0.2-0.7c0.5-1.4,2.2-2.2,3.4-2.3c0.2,0.6,0.3,1.3,0.3,2
		c0,1.5-0.5,2.9-1.3,4.1c0,0,0,0,0,0l0,0c-0.1,0.2-0.3,0.3-0.4,0.5c0,0,0,0-0.1,0.1c-0.1,0.1-0.1,0.1-0.2,0.2c0,0.1-0.1,0.1-0.1,0.2
		c0,0-0.1,0.1-0.1,0.1c-1.3,1.3-3.2,2.2-5.2,2.2h-8.6c-0.5,0-1.1-0.1-1.6-0.2C42.5,190.9,43.5,189.7,44.1,188.3z M42.8,197.8l8.6,0
		c0.5,0,1.1,0.1,1.6,0.2c-1.3,0.8-2.3,2.1-2.8,3.5c0,0,0,0-0.1,0l-6,0.1c-2.2,0-4.1,1.1-4.8,2.6c-0.1,0.2-0.1,0.4-0.2,0.7
		c-0.5,1.4-2.2,2.2-3.4,2.3c-0.2-0.6-0.3-1.3-0.3-2c0-1.4,0.4-2.6,1-3.7c0.1-0.1,0.2-0.3,0.3-0.4c0.1-0.2,0.3-0.3,0.4-0.5
		c0,0,0,0,0.1-0.1c0.1-0.1,0.1-0.1,0.2-0.2c0-0.1,0.1-0.1,0.1-0.2c0,0,0.1-0.1,0.1-0.1C38.9,198.6,40.8,197.8,42.8,197.8z
		 M50.1,208.7c2.2,0,4.1-1.1,4.8-2.6c0.1-0.2,0.1-0.4,0.2-0.7c0.5-1.4,2.2-2.2,3.4-2.3c0.2,0.6,0.3,1.3,0.3,2c0,1.5-0.5,2.9-1.3,4.1
		c0,0,0,0,0,0h0c-0.1,0.2-0.3,0.3-0.4,0.5c0,0,0,0-0.1,0.1c-0.1,0.1-0.1,0.1-0.2,0.2c0,0.1-0.1,0.1-0.1,0.2c0,0-0.1,0.1-0.1,0.1
		c-1.3,1.3-3.2,2.2-5.2,2.2l-8.6,0c-0.5,0-1.1-0.1-1.6-0.2c1.3-0.8,2.3-2.1,2.8-3.5C44.1,208.7,50.1,208.7,50.1,208.7z M59.4,208.7
		c0,0,6.1-0.1,6.1-0.1c2.2,0,4.1-1.1,4.8-2.6c0.1-0.2,0.1-0.4,0.2-0.7c0.5-1.4,2.2-2.2,3.4-2.3c0.2,0.6,0.3,1.3,0.3,2
		c0,1.5-0.5,2.9-1.3,4.1c0,0,0,0,0,0h0c-0.1,0.2-0.3,0.3-0.4,0.5c0,0,0,0-0.1,0.1c-0.1,0.1-0.1,0.1-0.2,0.2c0,0.1-0.1,0.1-0.1,0.2
		c0,0-0.1,0.1-0.1,0.1c-1.3,1.3-3.2,2.2-5.2,2.2l-8.6,0c-0.5,0-1.1-0.1-1.6-0.2C57.9,211.4,58.9,210.2,59.4,208.7z M73.6,218.2
		l8.6,0c0.5,0,1.1,0.1,1.6,0.2c-1.3,0.8-2.3,2.1-2.8,3.5c0,0,0,0-0.1,0l-6,0.1c-2.2,0-4.1,1.1-4.8,2.6c-0.1,0.2-0.1,0.4-0.2,0.7
		c-0.5,1.4-2.2,2.2-3.4,2.3c-0.2-0.6-0.3-1.3-0.3-2c0-1.4,0.4-2.6,1-3.7c0.1-0.1,0.2-0.3,0.3-0.4c0.1-0.2,0.3-0.3,0.4-0.5
		c0,0,0,0,0.1-0.1c0.1-0.1,0.1-0.1,0.2-0.2c0-0.1,0.1-0.1,0.1-0.2c0,0,0.1-0.1,0.1-0.1C69.8,219.1,71.6,218.2,73.6,218.2z M81,229.1
		c2.2,0,4.1-1.1,4.8-2.6c0.1-0.2,0.1-0.4,0.2-0.7c0.5-1.4,2.2-2.2,3.4-2.3c0.2,0.6,0.3,1.3,0.3,2c0,1.5-0.5,2.9-1.3,4.1c0,0,0,0,0,0
		l0,0c-0.1,0.2-0.3,0.3-0.4,0.5c0,0,0,0-0.1,0.1c-0.1,0.1-0.1,0.1-0.2,0.2c0,0.1-0.1,0.1-0.1,0.2c0,0-0.1,0.1-0.1,0.1
		c-1.3,1.3-3.2,2.2-5.2,2.2h-8.6c-0.5,0-1.1-0.1-1.6-0.2c1.3-0.8,2.3-2.1,2.8-3.5C74.9,229.2,81,229.1,81,229.1z M90.2,229.2
		c0,0,6.1-0.1,6.1-0.1c2.2,0,4.1-1.1,4.8-2.6c0.1-0.2,0.1-0.4,0.2-0.7c0.5-1.4,2.2-2.2,3.4-2.3c0.2,0.6,0.3,1.3,0.3,2
		c0,1.5-0.5,2.9-1.3,4.1c0,0,0,0,0,0l0,0c-0.1,0.2-0.3,0.3-0.4,0.5c0,0,0,0-0.1,0.1c-0.1,0.1-0.1,0.1-0.2,0.2c0,0.1-0.1,0.1-0.1,0.2
		c0,0-0.1,0.1-0.1,0.1c-1.3,1.3-3.2,2.2-5.2,2.2H89c-0.5,0-1.1-0.1-1.6-0.2C88.7,231.9,89.7,230.6,90.2,229.2z M105.6,229.2
		c0,0,6.1-0.1,6.1-0.1c2.2,0,4.1-1.1,4.8-2.6c0.1-0.2,0.1-0.4,0.2-0.7c0.5-1.4,2.2-2.2,3.4-2.3c0.2,0.6,0.3,1.3,0.3,2
		c0,1.5-0.5,2.9-1.3,4.1c0,0,0,0,0,0l0,0c-0.1,0.2-0.3,0.3-0.4,0.5c0,0,0,0-0.1,0.1c-0.1,0.1-0.1,0.1-0.2,0.2c0,0.1-0.1,0.1-0.1,0.2
		c0,0-0.1,0.1-0.1,0.1c-1.3,1.3-3.2,2.2-5.2,2.2h-8.6c-0.5,0-1.1-0.1-1.6-0.2C104,231.9,105,230.6,105.6,229.2z M121,229.2
		c0,0,6.1-0.1,6.1-0.1c2.2,0,4.1-1.1,4.8-2.6c0.1-0.2,0.1-0.4,0.2-0.7c0.5-1.4,2.2-2.2,3.4-2.3c0.2,0.6,0.3,1.3,0.3,2
		c0,1.5-0.5,2.9-1.3,4.1c0,0,0,0,0,0l0,0c-0.1,0.2-0.3,0.3-0.4,0.5c0,0,0,0-0.1,0.1c-0.1,0.1-0.1,0.1-0.2,0.2c0,0.1-0.1,0.1-0.1,0.2
		c0,0-0.1,0.1-0.1,0.1c-1.3,1.3-3.2,2.2-5.2,2.2h-8.6c-0.5,0-1.1-0.1-1.6-0.2C119.4,231.9,120.4,230.6,121,229.2z M136.2,229.2
		c0,0,6.1-0.1,6.1-0.1c2.2,0,4.1-1.1,4.8-2.6c0.1-0.2,0.1-0.4,0.2-0.7c0.5-1.4,2.2-2.2,3.4-2.3c0.2,0.6,0.3,1.3,0.3,2
		c0,1.5-0.5,2.9-1.3,4.1c0,0,0,0,0,0l0,0c-0.1,0.2-0.3,0.3-0.4,0.5c0,0,0,0-0.1,0.1c-0.1,0.1-0.1,0.1-0.2,0.2c0,0.1-0.1,0.1-0.1,0.2
		c0,0-0.1,0.1-0.1,0.1c-1.3,1.3-3.2,2.2-5.2,2.2H135c-0.5,0-1.1-0.1-1.6-0.2C134.6,231.9,135.6,230.6,136.2,229.2z M151.5,229.2
		c0,0,6.1-0.1,6.1-0.1c2.2,0,4.1-1.1,4.8-2.6c0.1-0.2,0.1-0.4,0.2-0.7c0.5-1.4,2.2-2.2,3.4-2.3c0.2,0.6,0.3,1.3,0.3,2
		c0,1.5-0.5,2.9-1.3,4.1c0,0,0,0,0,0l0,0c-0.1,0.2-0.3,0.3-0.4,0.5c0,0,0,0-0.1,0.1c-0.1,0.1-0.1,0.1-0.2,0.2c0,0.1-0.1,0.1-0.1,0.2
		c0,0-0.1,0.1-0.1,0.1c-1.3,1.3-3.2,2.2-5.2,2.2h-8.6c-0.5,0-1.1-0.1-1.6-0.2C150,231.9,151,230.6,151.5,229.2z M180.4,229.6
		C180.3,229.6,180.3,229.6,180.4,229.6L180.4,229.6c-0.1,0.2-0.3,0.4-0.4,0.6c0,0,0,0-0.1,0.1c-0.1,0.1-0.1,0.1-0.2,0.2
		c0,0.1-0.1,0.1-0.1,0.2c0,0-0.1,0.1-0.1,0.1c-1.3,1.3-3.2,2.2-5.2,2.2h-8.6c-0.5,0-1.1-0.1-1.6-0.2c1.3-0.8,2.3-2.1,2.8-3.5
		c0,0,6.1-0.1,6.1-0.1c2.2,0,4.1-1.1,4.8-2.6c0.1-0.2,0.1-0.4,0.2-0.7c0.5-1.4,2.2-2.2,3.4-2.3c0.2,0.6,0.3,1.3,0.3,2
		C181.6,227,181.2,228.4,180.4,229.6z M188.4,221.9C188.4,221.9,188.4,221.9,188.4,221.9l-6.1,0.1c-2.2,0-4.1,1.1-4.8,2.6
		c-0.1,0.2-0.1,0.4-0.2,0.7c-0.5,1.4-2.2,2.2-3.4,2.3c-0.2-0.6-0.3-1.3-0.3-2c0-1.4,0.4-2.6,1-3.7c0.1-0.1,0.2-0.3,0.3-0.4
		c0.1-0.2,0.3-0.3,0.4-0.5c0,0,0,0,0.1-0.1c0.1-0.1,0.1-0.1,0.2-0.2c0-0.1,0.1-0.1,0.1-0.2c0,0,0.1-0.1,0.1-0.1
		c1.3-1.3,3.2-2.2,5.2-2.2l8.6,0c0.5,0,1.1,0.1,1.6,0.2C189.9,219.2,188.9,220.5,188.4,221.9z M195.7,209.1
		C195.7,209.1,195.7,209.2,195.7,209.1L195.7,209.1c-0.1,0.2-0.3,0.4-0.4,0.6c0,0,0,0-0.1,0.1c-0.1,0.1-0.1,0.1-0.2,0.2
		c0,0.1-0.1,0.1-0.1,0.2c0,0-0.1,0.1-0.1,0.1c-1.3,1.3-3.2,2.2-5.2,2.2l-8.6,0c-0.5,0-1.1-0.1-1.6-0.2c1.3-0.8,2.3-2.1,2.8-3.5
		c0,0,6.1-0.1,6.1-0.1c2.2,0,4.1-1.1,4.8-2.6c0.1-0.2,0.1-0.4,0.2-0.7c0.5-1.4,2.2-2.2,3.4-2.3c0.2,0.6,0.3,1.3,0.3,2
		C197,206.5,196.5,208,195.7,209.1z M203.6,201.4C203.6,201.4,203.6,201.4,203.6,201.4l-6.1,0.1c-2.2,0-4.1,1.1-4.8,2.6
		c-0.1,0.2-0.1,0.4-0.2,0.7c-0.5,1.4-2.2,2.2-3.4,2.3c-0.2-0.6-0.3-1.3-0.3-2c0-1.4,0.4-2.6,1-3.7c0.1-0.1,0.2-0.3,0.3-0.4
		c0.1-0.2,0.3-0.3,0.4-0.5c0,0,0,0,0.1-0.1c0.1-0.1,0.1-0.1,0.2-0.2c0-0.1,0.1-0.1,0.1-0.2c0,0,0.1-0.1,0.1-0.1
		c1.3-1.3,3.2-2.2,5.2-2.2l8.6,0c0.5,0,1.1,0.1,1.6,0.2C205.2,198.8,204.2,200,203.6,201.4z M213.7,191.9h-2.1
		c-0.5,0-1.1-0.1-1.6-0.2c0.6-0.4,1.2-1,1.7-1.6L213.7,191.9z M208.4,62.8c0.1-0.2,0.1-0.4,0.2-0.7c0.5-1.4,2.2-2.2,3.4-2.3
		c0.2,0.6,0.3,1.3,0.3,2c0,0.1,0,0.3,0,0.4l-8.2,6.9h-7.7c-0.5,0-1.1-0.1-1.6-0.2c1.3-0.8,2.3-2.1,2.8-3.5c0,0,6.1-0.1,6.1-0.1
		C205.9,65.4,207.8,64.3,208.4,62.8z M196.3,54.5l8.6,0c0.5,0,1.1,0.1,1.6,0.2c-1.3,0.8-2.3,2.1-2.8,3.5c0,0,0,0-0.1,0l-6,0.1
		c-2.2,0-4.1,1.1-4.8,2.6c-0.1,0.2-0.1,0.4-0.2,0.7c-0.5,1.4-2.2,2.2-3.4,2.3c-0.2-0.6-0.3-1.3-0.3-2c0-1.4,0.4-2.6,1-3.7
		c0.1-0.1,0.2-0.3,0.3-0.4c0.1-0.2,0.3-0.3,0.4-0.5c0,0,0,0,0.1-0.1c0.1-0.1,0.1-0.1,0.2-0.2c0-0.1,0.1-0.1,0.1-0.2
		c0,0,0.1-0.1,0.1-0.1C192.4,55.3,194.3,54.5,196.3,54.5z M193.1,42.3c0.1-0.2,0.1-0.4,0.2-0.7c0.5-1.4,2.2-2.2,3.4-2.3
		c0.2,0.6,0.3,1.3,0.3,2c0,1.5-0.5,2.9-1.3,4.1c0,0,0,0,0,0h0c-0.1,0.2-0.3,0.3-0.4,0.5c0,0,0,0-0.1,0.1c-0.1,0.1-0.1,0.1-0.2,0.2
		c0,0.1-0.1,0.1-0.1,0.2c0,0-0.1,0.1-0.1,0.1c-1.3,1.3-3.2,2.2-5.2,2.2h-8.6c-0.5,0-1.1-0.1-1.6-0.2c1.3-0.8,2.3-2.1,2.8-3.5
		c0,0,6.1-0.1,6.1-0.1C190.6,44.9,192.5,43.8,193.1,42.3z M181,34l8.6,0c0.5,0,1.1,0.1,1.6,0.2c-1.3,0.8-2.3,2.1-2.8,3.5
		c0,0,0,0-0.1,0l-6,0.1c-2.2,0-4.1,1.1-4.8,2.6c-0.1,0.2-0.1,0.4-0.2,0.7c-0.5,1.4-2.2,2.2-3.4,2.3c-0.2-0.6-0.3-1.3-0.3-2
		c0-1.4,0.4-2.6,1-3.7c0.1-0.1,0.2-0.3,0.3-0.4c0.1-0.2,0.3-0.3,0.4-0.5c0,0,0,0,0.1-0.1c0.1-0.1,0.1-0.1,0.2-0.2
		c0-0.1,0.1-0.1,0.1-0.2c0,0,0.1-0.1,0.1-0.1C177.2,34.8,179,34,181,34z M165.7,34l8.6,0c0.5,0,1.1,0.1,1.6,0.2
		c-1.3,0.8-2.3,2.1-2.8,3.5c0,0,0,0-0.1,0l-6,0.1c-2.2,0-4.1,1.1-4.8,2.6c-0.1,0.2-0.1,0.4-0.2,0.7c-0.5,1.4-2.2,2.2-3.4,2.3
		c-0.2-0.6-0.3-1.3-0.3-2c0-1.4,0.4-2.6,1-3.7c0.1-0.1,0.2-0.3,0.3-0.4c0.1-0.2,0.3-0.3,0.4-0.5c0,0,0,0,0.1-0.1
		c0.1-0.1,0.1-0.1,0.2-0.2c0-0.1,0.1-0.1,0.1-0.2c0,0,0.1-0.1,0.1-0.1C161.8,34.8,163.6,34,165.7,34z M162.4,21.8
		c0.1-0.2,0.1-0.4,0.2-0.7c0.5-1.4,2.2-2.2,3.4-2.3c0.2,0.6,0.3,1.3,0.3,2c0,1.5-0.5,2.9-1.3,4.1c0,0,0,0,0,0l0,0
		c-0.1,0.2-0.3,0.3-0.4,0.5c0,0,0,0-0.1,0.1c-0.1,0.1-0.1,0.1-0.2,0.2c0,0.1-0.1,0.1-0.1,0.2c0,0-0.1,0.1-0.1,0.1
		c-1.3,1.3-3.2,2.2-5.2,2.2h-8.6c-0.5,0-1.1-0.1-1.6-0.2c1.3-0.8,2.3-2.1,2.8-3.5c0,0,6.1-0.1,6.1-0.1
		C159.9,24.4,161.8,23.3,162.4,21.8z M150.3,13.5l8.6,0c0.5,0,1.1,0.1,1.6,0.2c-1.3,0.8-2.3,2.1-2.8,3.5c0,0,0,0-0.1,0l-6,0.1
		c-2.2,0-4.1,1.1-4.8,2.6c-0.1,0.2-0.1,0.4-0.2,0.7c-0.5,1.4-2.2,2.2-3.4,2.3c-0.2-0.6-0.3-1.3-0.3-2c0-1.4,0.4-2.6,1-3.7
		c0.1-0.1,0.2-0.3,0.3-0.4c0.1-0.2,0.3-0.3,0.4-0.5c0,0,0,0,0.1-0.1c0.1-0.1,0.1-0.1,0.2-0.2c0-0.1,0.1-0.1,0.1-0.2
		c0,0,0.1-0.1,0.1-0.1C146.4,14.4,148.3,13.5,150.3,13.5z M135,13.5l8.6,0c0.5,0,1.1,0.1,1.6,0.2c-1.3,0.8-2.3,2.1-2.8,3.5
		c0,0,0,0-0.1,0l-6,0.1c-2.2,0-4.1,1.1-4.8,2.6c-0.1,0.2-0.1,0.4-0.2,0.7c-0.5,1.4-2.2,2.2-3.4,2.3c-0.2-0.6-0.3-1.3-0.3-2
		c0-1.4,0.4-2.6,1-3.7c0.1-0.1,0.2-0.3,0.3-0.4c0.1-0.2,0.3-0.3,0.4-0.5c0,0,0,0,0.1-0.1c0.1-0.1,0.1-0.1,0.2-0.2
		c0-0.1,0.1-0.1,0.1-0.2c0,0,0.1-0.1,0.1-0.1C131.1,14.4,132.9,13.5,135,13.5z M119.7,13.5l8.6,0c0.5,0,1.1,0.1,1.6,0.2
		c-1.3,0.8-2.3,2.1-2.8,3.5c0,0,0,0-0.1,0l-6,0.1c-2.2,0-4.1,1.1-4.8,2.6c-0.1,0.2-0.1,0.4-0.2,0.7c-0.5,1.4-2.2,2.2-3.4,2.3
		c-0.2-0.6-0.3-1.3-0.3-2c0-1.4,0.4-2.6,1-3.7c0.1-0.1,0.2-0.3,0.3-0.4c0.1-0.2,0.3-0.3,0.4-0.5c0,0,0,0,0.1-0.1
		c0.1-0.1,0.1-0.1,0.2-0.2c0-0.1,0.1-0.1,0.1-0.2c0,0,0.1-0.1,0.1-0.1C115.8,14.4,117.7,13.5,119.7,13.5z M104.4,13.5l8.6,0
		c0.6,0,1.1,0.1,1.6,0.2c-1.3,0.8-2.3,2.1-2.8,3.5c0,0,0,0-0.1,0l-6,0.1c-2.2,0-4.1,1.1-4.8,2.6c-0.1,0.2-0.1,0.4-0.2,0.7
		c-0.5,1.4-2.2,2.2-3.4,2.3c-0.2-0.6-0.3-1.3-0.3-2c0-1.4,0.4-2.6,1-3.7c0.1-0.1,0.2-0.3,0.3-0.4c0.1-0.2,0.3-0.3,0.4-0.5
		c0,0,0,0,0.1-0.1c0.1-0.1,0.1-0.1,0.2-0.2c0-0.1,0.1-0.1,0.1-0.2c0,0,0.1-0.1,0.1-0.1C100.5,14.4,102.3,13.5,104.4,13.5z M88.6,6.5
		c5.2-1.6,10.5-2.9,16-4c-0.2,0.7-0.5,1.3-0.9,1.9c0,0,0,0,0,0h0c-0.1,0.2-0.3,0.3-0.4,0.5c0,0,0,0-0.1,0.1
		c-0.1,0.1-0.1,0.1-0.2,0.2c0,0.1-0.1,0.1-0.1,0.2c0,0-0.1,0.1-0.1,0.1c-1.3,1.3-3.2,2.2-5.2,2.2l-8.6,0c-0.5,0-1.1-0.1-1.6-0.2
		C87.8,7.2,88.2,6.9,88.6,6.5z M67.3,17.2c0.1-0.1,0.2-0.3,0.3-0.4c0.1-0.2,0.3-0.3,0.4-0.5c0,0,0,0,0.1-0.1
		c0.1-0.1,0.1-0.1,0.2-0.2c0-0.1,0.1-0.1,0.1-0.2c0,0,0.1-0.1,0.1-0.1c1.3-1.3,3.2-2.2,5.2-2.2l8.6,0c0.5,0,1.1,0.1,1.6,0.2
		c-1.3,0.8-2.3,2.1-2.8,3.5c0,0,0,0-0.1,0l-6,0.1c-2.2,0-4.1,1.1-4.8,2.6C70,20.1,70,20.3,70,20.6c-0.5,1.4-2.2,2.2-3.4,2.3
		c-0.2-0.6-0.3-1.3-0.3-2C66.3,19.6,66.6,18.3,67.3,17.2z M66.1,16.1c-0.2,0.4-0.4,0.7-0.5,1.1c0,0,0,0-0.1,0l-1.4,0
		C64.7,16.9,65.4,16.5,66.1,16.1z M65.5,24.5c2.2,0,4.1-1.1,4.8-2.6c0.1-0.2,0.1-0.4,0.2-0.7c0.5-1.4,2.2-2.2,3.4-2.3
		c0.2,0.6,0.3,1.3,0.3,2c0,1.5-0.5,2.9-1.3,4.1c0,0,0,0,0,0h0c-0.1,0.2-0.3,0.3-0.4,0.5c0,0,0,0-0.1,0.1c-0.1,0.1-0.1,0.1-0.2,0.2
		c0,0.1-0.1,0.1-0.1,0.2c0,0-0.1,0.1-0.1,0.1c-1.3,1.3-3.2,2.2-5.2,2.2l-8.6,0c-0.5,0-1.1-0.1-1.6-0.2c1.3-0.8,2.3-2.1,2.8-3.5
		C59.4,24.5,65.5,24.5,65.5,24.5z M58.8,20.5c0,0.1,0,0.3,0,0.4c0,1.5-0.5,2.9-1.3,4.1c0,0,0,0,0,0h0c-0.1,0.2-0.3,0.3-0.4,0.5
		c0,0,0,0-0.1,0.1c-0.1,0.1-0.1,0.1-0.2,0.2c0,0.1-0.1,0.1-0.1,0.2c0,0-0.1,0.1-0.1,0.1c-1.3,1.3-3.2,2.2-5.2,2.2l-3.5,0
		C51.4,25.4,55,22.8,58.8,20.5z M35.9,38.8c0.8-0.8,1.6-1.6,2.4-2.4c0.7-0.7,1.5-1.4,2.2-2c0.7-0.2,1.4-0.3,2.2-0.3l8.6,0
		c0.5,0,1.1,0.1,1.6,0.2c-1.3,0.8-2.3,2.1-2.8,3.5c0,0,0,0-0.1,0l-6,0.1c-2.2,0-4.1,1.1-4.8,2.6c-0.1,0.2-0.1,0.4-0.2,0.7
		c-0.5,1.4-2.2,2.2-3.4,2.3c-0.2-0.6-0.3-1.3-0.3-2C35.4,40.5,35.6,39.6,35.9,38.8z M30.1,45c1.8,0,4.7,0,4.7,0
		c2.2,0,4.1-1.1,4.8-2.6c0.1-0.2,0.1-0.4,0.2-0.7c0.5-1.4,2.2-2.2,3.4-2.3c0.2,0.6,0.3,1.3,0.3,2c0,1.5-0.5,2.9-1.3,4.1c0,0,0,0,0,0
		l0,0c-0.1,0.2-0.3,0.3-0.4,0.5c0,0,0,0-0.1,0.1c-0.1,0.1-0.1,0.1-0.2,0.2c0,0.1-0.1,0.1-0.1,0.2c0,0-0.1,0.1-0.1,0.1
		c-1.3,1.3-3.2,2.2-5.2,2.2h-8.6c-0.2,0-0.3,0-0.5,0C28,47.4,29,46.2,30.1,45z M21.1,58.2c0.1-0.1,0.2-0.3,0.3-0.4
		c0.1-0.2,0.3-0.3,0.4-0.5c0,0,0,0,0.1-0.1c0.1-0.1,0.1-0.1,0.2-0.2c0-0.1,0.1-0.1,0.1-0.2c0,0,0.1-0.1,0.1-0.1
		c1.3-1.3,3.2-2.2,5.2-2.2l8.6,0c0.5,0,1.1,0.1,1.6,0.2c-1.3,0.8-2.3,2.1-2.8,3.5c0,0,0,0-0.1,0l-6,0.1c-2.2,0-4.1,1.1-4.8,2.6
		c-0.1,0.2-0.1,0.4-0.2,0.7c-0.5,1.4-2.2,2.2-3.4,2.3c-0.2-0.6-0.3-1.3-0.3-2C20.1,60.5,20.4,59.2,21.1,58.2z M15.4,65.5
		c1.8,0,4.1,0,4.1,0c2.2,0,4.1-1.1,4.8-2.6c0.1-0.2,0.1-0.4,0.2-0.7c0.5-1.4,2.2-2.2,3.4-2.3c0.2,0.6,0.3,1.3,0.3,2
		c0,1.5-0.5,2.9-1.3,4.1c0,0,0,0,0,0h0c-0.1,0.2-0.3,0.3-0.4,0.5c0,0,0,0-0.1,0.1c-0.1,0.1-0.1,0.1-0.2,0.2c0,0.1-0.1,0.1-0.1,0.2
		c0,0-0.1,0.1-0.1,0.1c-1.3,1.3-3.2,2.2-5.2,2.2l-7.3,0C14,67.9,14.7,66.7,15.4,65.5z M10.4,75.2C11,75,11.5,75,12.1,75h8.6
		c0.5,0,1.1,0.1,1.6,0.2C21,76,20,77.2,19.4,78.7c0,0,0,0-0.1,0l-6,0.1c-2.2,0-4.1,1.1-4.8,2.6c-0.1,0.2-0.1,0.4-0.2,0.7
		c-0.3,0.6-0.8,1.2-1.3,1.5C8.1,80.7,9.2,77.9,10.4,75.2z M6.4,85.4c1.1-0.5,2-1.2,2.4-2.2C8.9,83.1,9,82.8,9,82.6
		c0.5-1.4,2.2-2.2,3.4-2.3c0.2,0.6,0.3,1.3,0.3,2c0,1.5-0.5,2.9-1.3,4.1c-1.3,1.9-3.5,3.2-6.1,3.2l-0.2,0C5.5,88.2,6,86.8,6.4,85.4z
		 M3.6,95.4l1.6,0c0,0,0,0,0,0l0.1,0c0.5,0,1.1,0.1,1.6,0.2c-1.3,0.8-2.3,2.1-2.8,3.5c0,0,0,0-0.1,0l-1.3,0
		C3,97.9,3.3,96.6,3.6,95.4z M1.5,106.4l2.6,0c2.2,0,4.1-1.1,4.8-2.6c0.1-0.2,0.1-0.4,0.2-0.7c0.5-1.4,2.2-2.2,3.4-2.3
		c0.2,0.6,0.3,1.3,0.3,2c0,1.5-0.5,2.9-1.3,4.1c-1.3,1.9-3.5,3.2-6.1,3.2L1,110C1.1,108.8,1.3,107.6,1.5,106.4z M4,119.6l-3.8,0
		c0.1-1.2,0.1-2.5,0.2-3.7l4.8,0l0,0l0.1,0c0.5,0,1.1,0.1,1.6,0.2C5.6,116.9,4.6,118.1,4,119.6C4.1,119.6,4,119.6,4,119.6z
		 M8.6,122.3c-0.1,0.2-0.1,0.4-0.2,0.7c-0.5,1.4-2.2,2.2-3.4,2.3c-0.2-0.6-0.3-1.3-0.3-2c0-1.4,0.4-2.6,1-3.7
		c0.1-0.1,0.2-0.3,0.3-0.4c0.1-0.2,0.3-0.3,0.4-0.5c0,0,0,0,0.1-0.1c0.1-0.1,0.1-0.1,0.2-0.2c0-0.1,0.1-0.1,0.1-0.2
		c0,0,0.1-0.1,0.1-0.1c1.3-1.3,3.2-2.2,5.2-2.2l8.6,0c0.5,0,1.1,0.1,1.6,0.2c-1.3,0.8-2.3,2.1-2.8,3.5c0,0,0,0-0.1,0l-6,0.1
		C11.1,119.7,9.2,120.8,8.6,122.3z M13.3,126.9c0,0,6.1-0.1,6.1-0.1c2.2,0,4.1-1.1,4.8-2.6c0.1-0.2,0.1-0.4,0.2-0.7
		c0.5-1.4,2.2-2.2,3.4-2.3c0.2,0.6,0.3,1.3,0.3,2c0,1.5-0.5,2.9-1.3,4.1c0,0,0,0,0,0h0c-0.1,0.2-0.3,0.3-0.4,0.5c0,0,0,0-0.1,0.1
		c-0.1,0.1-0.1,0.1-0.2,0.2c0,0.1-0.1,0.1-0.1,0.2c0,0-0.1,0.1-0.1,0.1c-1.3,1.3-3.2,2.2-5.2,2.2l-8.6,0c-0.6,0-1.1-0.1-1.6-0.2
		C11.8,129.5,12.8,128.3,13.3,126.9z M12.1,136.4l8.6,0c0.5,0,1.1,0.1,1.6,0.2c-1.3,0.8-2.3,2.1-2.8,3.5c0,0,0,0-0.1,0l-6,0.1
		c-2.2,0-4.1,1.1-4.8,2.6c-0.1,0.2-0.1,0.4-0.2,0.7c-0.5,1.4-2.2,2.2-3.4,2.3c-0.2-0.6-0.3-1.3-0.3-2c0-1.4,0.4-2.6,1-3.7
		c0.1-0.1,0.2-0.3,0.3-0.4c0.1-0.2,0.3-0.3,0.4-0.5c0,0,0,0,0.1-0.1c0.1-0.1,0.1-0.1,0.2-0.2c0-0.1,0.1-0.1,0.1-0.2
		c0,0,0.1-0.1,0.1-0.1C8.2,137.2,10.1,136.4,12.1,136.4z M0.3,136.4l4.9,0l0,0h0.1c0.5,0,1.1,0.1,1.6,0.2c-1.3,0.8-2.3,2.1-2.8,3.5
		c0,0,0,0-0.1,0l-3.4,0C0.5,138.8,0.4,137.6,0.3,136.4z M1.4,147.3l2.6,0c2.2,0,4.1-1.1,4.8-2.6c0.1-0.2,0.1-0.4,0.2-0.7
		c0.5-1.4,2.2-2.2,3.4-2.3c0.2,0.6,0.3,1.3,0.3,2c0,1.5-0.5,2.9-1.3,4.1c-1.3,1.9-3.5,3.2-6.1,3.2L2,151
		C1.8,149.7,1.6,148.5,1.4,147.3z M3.2,156.8l2,0l0,0l0.1,0c0.5,0,1.1,0.1,1.6,0.2c-1.3,0.8-2.3,2.1-2.8,3.5
		C3.8,159.3,3.5,158.1,3.2,156.8z M4.8,163.2c0.1-1,0.5-1.9,1-2.7c0.1-0.1,0.2-0.3,0.3-0.4c0.1-0.2,0.3-0.3,0.4-0.5c0,0,0,0,0.1-0.1
		c0.1-0.1,0.1-0.1,0.2-0.2c0-0.1,0.1-0.1,0.1-0.2c0,0,0.1-0.1,0.1-0.1c1.3-1.3,3.2-2.2,5.2-2.2l8.6,0c0.5,0,1.1,0.1,1.6,0.2
		c-1.3,0.8-2.3,2.1-2.8,3.5c0,0,0,0-0.1,0l-6,0.1c-2.2,0-4.1,1.1-4.8,2.6c-0.1,0.2-0.1,0.4-0.2,0.7c-0.4,1.1-1.6,1.9-2.8,2.2
		C5.4,165.1,5.1,164.1,4.8,163.2z M6.1,167.4c1.3-0.4,2.3-1.3,2.7-2.3c0.1-0.2,0.1-0.4,0.2-0.7c0.5-1.4,2.2-2.2,3.4-2.3
		c0.2,0.6,0.3,1.3,0.3,2c0,1.5-0.5,2.9-1.3,4.1c-1,1.4-2.4,2.4-4,2.9C6.9,169.9,6.5,168.7,6.1,167.4z M12.3,182.6c0,0,0.1,0,0.1,0
		c0.1,0.2,0.1,0.3,0.1,0.5C12.5,183,12.4,182.8,12.3,182.6z M11.6,181.3c-0.6-1.2-1.1-2.4-1.7-3.7c0.7-0.2,1.4-0.3,2.1-0.3l8.6,0
		c0.5,0,1.1,0.1,1.6,0.2c-1.3,0.8-2.3,2.1-2.8,3.5c0,0,0,0-0.1,0l-6,0.1C12.8,181.1,12.2,181.1,11.6,181.3z M17.5,192
		c-0.8-1.2-1.5-2.5-2.2-3.7c1.8,0,4.2,0,4.2,0c2.2,0,4.1-1.1,4.8-2.6c0.1-0.2,0.1-0.4,0.2-0.7c0.5-1.4,2.2-2.2,3.4-2.3
		c0.2,0.6,0.3,1.3,0.3,2c0,1.5-0.5,2.9-1.3,4.1c0,0,0,0,0,0l0,0c-0.1,0.2-0.3,0.3-0.4,0.5c0,0,0,0-0.1,0.1c-0.1,0.1-0.1,0.1-0.2,0.2
		c0,0.1-0.1,0.1-0.1,0.2c0,0-0.1,0.1-0.1,0.1c-1.3,1.3-3.2,2.2-5.2,2.2H17.5z M21.7,198.4c-0.1-0.2-0.3-0.4-0.4-0.6
		c0.3,0,0.6,0.1,1,0.1C22.1,198.1,21.9,198.2,21.7,198.4z M27.9,206.4c-0.7-0.9-1.4-1.7-2.1-2.6c0.6-0.4,1.4-0.6,2-0.7
		c0.2,0.6,0.3,1.3,0.3,2C28.1,205.5,28,206,27.9,206.4z M25,202.8c-0.8-1-1.6-2.1-2.4-3.2c1.3-1.1,3-1.8,4.8-1.8l8.6,0
		c0.5,0,1.1,0.1,1.6,0.2c-1.3,0.8-2.3,2.1-2.8,3.5c0,0,0,0-0.1,0l-6,0.1C27.2,201.5,25.9,202,25,202.8z M33.3,212.4
		c-1.2-1.2-2.3-2.4-3.4-3.7c1.8,0,4.8,0,4.8,0c2.2,0,4.1-1.1,4.8-2.6c0.1-0.2,0.1-0.4,0.2-0.7c0.5-1.4,2.2-2.2,3.4-2.3
		c0.2,0.6,0.3,1.3,0.3,2c0,1.5-0.5,2.9-1.3,4.1c0,0,0,0,0,0h0c-0.1,0.2-0.3,0.3-0.4,0.5c0,0,0,0-0.1,0.1c-0.1,0.1-0.1,0.1-0.2,0.2
		c0,0.1-0.1,0.1-0.1,0.2c0,0-0.1,0.1-0.1,0.1c-1.3,1.3-3.2,2.2-5.2,2.2L33.3,212.4z M50.1,221.9l-6,0.1c-0.2,0-0.4,0-0.5,0
		c-1.2-1-2.4-2.1-3.6-3.2c0.9-0.4,1.9-0.6,2.9-0.6l8.6,0c0.5,0,1.1,0.1,1.6,0.2C51.7,219.3,50.7,220.5,50.1,221.9
		C50.1,221.9,50.1,221.9,50.1,221.9z M50.8,225.6c0-1.4,0.4-2.6,1-3.7c0.1-0.1,0.2-0.3,0.3-0.4c0.1-0.2,0.3-0.3,0.4-0.5
		c0,0,0,0,0.1-0.1c0.1-0.1,0.1-0.1,0.2-0.2c0-0.1,0.1-0.1,0.1-0.2c0,0,0.1-0.1,0.1-0.1c1.3-1.3,3.2-2.2,5.2-2.2l8.6,0
		c0.5,0,1.1,0.1,1.6,0.2c-1.3,0.8-2.3,2.1-2.8,3.5c0,0,0,0-0.1,0l-6,0.1c-2.2,0-4.1,1.1-4.8,2.6c-0.1,0.2-0.1,0.4-0.2,0.7
		c-0.5,1.4-2.2,2.2-3.4,2.3C50.9,227,50.8,226.3,50.8,225.6z M57,230.3c-0.1,0.1-0.1,0.1-0.2,0.2c0,0.1-0.1,0.1-0.1,0.2
		c0,0-0.1,0.1-0.1,0.1c-0.2,0.2-0.5,0.4-0.7,0.6c-1.2-0.8-2.4-1.7-3.7-2.5c1.3-0.4,2.3-1.3,2.7-2.3c0.1-0.2,0.1-0.4,0.2-0.7
		c0.5-1.4,2.2-2.2,3.4-2.3c0.2,0.6,0.3,1.3,0.3,2c0,1.5-0.5,2.9-1.3,4.1c0,0,0,0,0,0l0,0C57.4,229.9,57.2,230,57,230.3
		C57.1,230.2,57,230.2,57,230.3z M58.3,232.9c-0.3-0.2-0.7-0.4-1-0.7c1-0.8,1.7-1.8,2.2-3c0,0,6.1-0.1,6.1-0.1
		c2.2,0,4.1-1.1,4.8-2.6c0.1-0.2,0.1-0.4,0.2-0.7c0.5-1.4,2.2-2.2,3.4-2.3c0.2,0.6,0.3,1.3,0.3,2c0,1.5-0.5,2.9-1.3,4.1c0,0,0,0,0,0
		l0,0c-0.1,0.2-0.3,0.3-0.4,0.5c0,0,0,0-0.1,0.1c-0.1,0.1-0.1,0.1-0.2,0.2c0,0.1-0.1,0.1-0.1,0.2c0,0-0.1,0.1-0.1,0.1
		c-1.3,1.3-3.2,2.2-5.2,2.2H58.3z M80.9,242.4l-4.7,0c-2-0.9-4.1-1.8-6.1-2.8c1-0.6,2.3-0.9,3.5-0.9l8.6,0c0.5,0,1.1,0.1,1.6,0.2
		C82.5,239.7,81.5,240.9,80.9,242.4C81,242.4,80.9,242.4,80.9,242.4z M89.5,247.3c-1.2-0.4-2.3-0.7-3.5-1.1c0.6-1.3,2.1-2,3.3-2.2
		c0.2,0.6,0.3,1.3,0.3,2C89.6,246.4,89.5,246.9,89.5,247.3z M96.3,242.4C96.3,242.4,96.3,242.4,96.3,242.4l-6.1,0.1
		c-2.2,0-4.1,1.1-4.8,2.6c-0.1,0.2-0.1,0.4-0.2,0.7c0,0.1-0.1,0.1-0.1,0.2c-1.2-0.4-2.3-0.8-3.4-1.2c0.2-0.8,0.5-1.6,0.9-2.3
		c0.1-0.1,0.2-0.3,0.3-0.4c0.1-0.2,0.3-0.3,0.4-0.5c0,0,0,0,0.1-0.1c0.1-0.1,0.1-0.1,0.2-0.2c0-0.1,0.1-0.1,0.1-0.2
		c0,0,0.1-0.1,0.1-0.1c1.3-1.3,3.2-2.2,5.2-2.2l8.6,0c0.5,0,1.1,0.1,1.6,0.2C97.9,239.7,96.9,240.9,96.3,242.4z M97,246.1
		c0-1.4,0.4-2.6,1-3.7c0.1-0.1,0.2-0.3,0.3-0.4c0.1-0.2,0.3-0.3,0.4-0.5c0,0,0,0,0.1-0.1c0.1-0.1,0.1-0.1,0.2-0.2
		c0-0.1,0.1-0.1,0.1-0.2c0,0,0.1-0.1,0.1-0.1c1.3-1.3,3.2-2.2,5.2-2.2l8.6,0c0.6,0,1.1,0.1,1.6,0.2c-1.3,0.8-2.3,2.1-2.8,3.5
		c0,0,0,0-0.1,0l-6,0.1c-2.2,0-4.1,1.1-4.8,2.6c-0.1,0.2-0.1,0.4-0.2,0.7c-0.5,1.4-2.2,2.2-3.4,2.3C97.1,247.4,97,246.8,97,246.1z
		 M103.6,250.1c-0.1,0.2-0.3,0.3-0.4,0.5c0,0,0,0-0.1,0.1c0,0,0,0,0,0c-1.9-0.4-3.8-0.8-5.7-1.2c1.7-0.3,3.1-1.3,3.6-2.5
		c0.1-0.2,0.1-0.4,0.2-0.7c0.5-1.4,2.2-2.2,3.4-2.3c0.2,0.6,0.3,1.3,0.3,2C104.9,247.5,104.5,248.9,103.6,250.1
		C103.7,250.1,103.6,250.1,103.6,250.1L103.6,250.1z M119,250.1C119,250.1,119,250.1,119,250.1L119,250.1c-0.1,0.2-0.3,0.4-0.4,0.6
		c0,0,0,0-0.1,0.1c-0.1,0.1-0.1,0.1-0.2,0.2c0,0.1-0.1,0.1-0.1,0.2c0,0-0.1,0.1-0.1,0.1c-0.6,0.6-1.3,1.1-2,1.4
		c-3.8-0.4-7.6-0.9-11.2-1.6c0.3-0.4,0.5-0.9,0.7-1.4c0,0,6.1-0.1,6.1-0.1c2.2,0,4.1-1.1,4.8-2.6c0.1-0.2,0.1-0.4,0.2-0.7
		c0.5-1.4,2.2-2.2,3.4-2.3c0.2,0.6,0.3,1.3,0.3,2C120.3,247.5,119.8,248.9,119,250.1z M127,242.4l-6,0.1c-2.2,0-4.1,1.1-4.8,2.6
		c-0.1,0.2-0.1,0.4-0.2,0.7c-0.5,1.4-2.2,2.2-3.4,2.3c-0.2-0.6-0.3-1.3-0.3-2c0-1.4,0.4-2.6,1-3.7c0.1-0.1,0.2-0.3,0.3-0.4
		c0.1-0.2,0.3-0.3,0.4-0.5c0,0,0,0,0.1-0.1c0.1-0.1,0.1-0.1,0.2-0.2c0-0.1,0.1-0.1,0.1-0.2c0,0,0.1-0.1,0.1-0.1
		c1.3-1.3,3.2-2.2,5.2-2.2l8.6,0c0.5,0,1.1,0.1,1.6,0.2C128.6,239.7,127.6,240.9,127,242.4C127.1,242.4,127,242.4,127,242.4z
		 M131.5,245c-0.1,0.2-0.1,0.4-0.2,0.7c-0.5,1.4-2.2,2.2-3.4,2.3c-0.2-0.6-0.3-1.3-0.3-2c0-1.4,0.4-2.6,1-3.7
		c0.1-0.1,0.2-0.3,0.3-0.4c0.1-0.2,0.3-0.3,0.4-0.5c0,0,0,0,0.1-0.1c0.1-0.1,0.1-0.1,0.2-0.2c0-0.1,0.1-0.1,0.1-0.2
		c0,0,0.1-0.1,0.1-0.1c1.3-1.3,3.2-2.2,5.2-2.2l8.6,0c0.5,0,1.1,0.1,1.6,0.2c-1.3,0.8-2.3,2.1-2.8,3.5c0,0,0,0-0.1,0l-6,0.1
		C134,242.4,132.1,243.5,131.5,245z"/>
	<text transform="matrix(1 0 0 1 291.988 104.0517)"><tspan x="0" y="0" class="st0 st1 st2">HKBCS</tspan><tspan x="0" y="118.8" class="st0 st1 st2">DappCamp</tspan></text>
</g>
</svg>
